/* XPM */
static char *result[] = {
/* columns rows colors chars-per-pixel */
"33 70 222 2 ",
"   c #060506",
".  c #090605",
"X  c #0B0907",
"o  c #0A0708",
"O  c #0D0B0B",
"+  c #110D0D",
"@  c #14110F",
"#  c #1E120E",
"$  c #0F0D12",
"%  c #120E11",
"&  c #151213",
"*  c #1A1514",
"=  c #1D1816",
"-  c #1D1B1B",
";  c #181519",
":  c #21140C",
">  c #2A1C0E",
",  c #251A0E",
"<  c #321F0E",
"1  c #251A11",
"2  c #2B1D11",
"3  c #221E1D",
"4  c #2A1E1B",
"5  c #33230E",
"6  c #3B270E",
"7  c #2F2112",
"8  c #25211E",
"9  c #332413",
"0  c #3B2A12",
"q  c #382816",
"w  c #2D220E",
"e  c #1F1E22",
"r  c #232224",
"t  c #2E2B2D",
"y  c #282626",
"u  c #312D2B",
"i  c #332621",
"p  c #393228",
"a  c #312E31",
"s  c #393536",
"d  c #393736",
"f  c #422D15",
"g  c #452F16",
"h  c #443215",
"j  c #4B3515",
"k  c #44341A",
"l  c #4C361A",
"z  c #4C3A1D",
"x  c #4D3810",
"c  c #533C1C",
"v  c #52381A",
"b  c #443423",
"n  c #493825",
"m  c #533C24",
"M  c #473E30",
"N  c #594115",
"B  c #56411D",
"V  c #5B441C",
"C  c #5E481F",
"Z  c #64461C",
"A  c #634B1C",
"S  c #6C4A1E",
"D  c #6A461F",
"F  c #74541D",
"G  c #6F531C",
"H  c #564221",
"J  c #5B4321",
"K  c #5D4925",
"L  c #5B4A29",
"P  c #594931",
"I  c #624A24",
"U  c #654E29",
"Y  c #674925",
"T  c #714E22",
"R  c #6C5626",
"E  c #6D542A",
"W  c #68562E",
"Q  c #745425",
"!  c #7B5523",
"~  c #725A26",
"^  c #7C5B24",
"/  c #745C2B",
"(  c #795A29",
")  c #745C35",
"_  c #735A3E",
"`  c #654E37",
"'  c #7E642E",
"]  c #7C6333",
"[  c #7B6639",
"{  c #454241",
"}  c #4C484A",
"|  c #524E4F",
" . c #524C50",
".. c #5B575A",
"X. c #645442",
"o. c #796646",
"O. c #776653",
"+. c #635E60",
"@. c #686667",
"#. c #716760",
"$. c #7A7879",
"%. c #746F72",
"&. c #855F27",
"*. c #815A2B",
"=. c #805625",
"-. c #84652C",
";. c #886A2B",
":. c #926E2D",
">. c #9C7B2A",
",. c #94752B",
"<. c #886934",
"1. c #8D7239",
"2. c #997432",
"3. c #9D7B34",
"4. c #92743B",
"5. c #957837",
"6. c #A17E2F",
"7. c #A17B3F",
"8. c #837146",
"9. c #85734A",
"0. c #87784F",
"q. c #947944",
"w. c #9A7E48",
"e. c #837758",
"r. c #967D57",
"t. c #936C40",
"y. c #A57E40",
"u. c #817662",
"i. c #9D823C",
"p. c #9F8136",
"a. c #A5862D",
"s. c #A38132",
"d. c #AC8A35",
"f. c #A7813C",
"g. c #AB8937",
"h. c #B18D34",
"j. c #B0893E",
"k. c #BA943B",
"l. c #BD9C3B",
"z. c #B79536",
"x. c #C39B3B",
"c. c #C39D35",
"v. c #C4A33D",
"b. c #D7AF3E",
"n. c #9C8349",
"m. c #988453",
"M. c #9F9258",
"N. c #A98B46",
"B. c #B28D4F",
"V. c #BD9B44",
"C. c #BB9C4D",
"Z. c #AB8D52",
"A. c #A38955",
"S. c #AC9253",
"D. c #A1905B",
"F. c #B79B58",
"G. c #B08F50",
"H. c #BFA14B",
"J. c #B9A457",
"K. c #9A8C67",
"L. c #9E9064",
"P. c #9A8F75",
"I. c #A59464",
"U. c #A6966D",
"Y. c #B49966",
"T. c #AC9C79",
"R. c #A89878",
"E. c #B19A7E",
"W. c #BCA86D",
"Q. c #BEB06A",
"!. c #BAAB71",
"~. c #C39A45",
"^. c #C4A443",
"/. c #CCA643",
"(. c #CBA848",
"). c #D3AA47",
"_. c #D6B149",
"`. c #CAA956",
"'. c #D2AB53",
"]. c #D7B557",
"[. c #E3BB5A",
"{. c #D2B669",
"}. c #C3B477",
"|. c #CAB370",
" X c #E4C35C",
".X c #D4C072",
"XX c #E8C666",
"oX c #E9CD76",
"OX c #928D8F",
"+X c #919093",
"@X c #B29D83",
"#X c #AE9D8C",
"$X c #B7A686",
"%X c #BEB281",
"&X c #B6A997",
"*X c #B1AA95",
"=X c #9F9EA2",
"-X c gray63",
";X c #B5B3B3",
":X c #CCB88A",
">X c #C9B597",
",X c #C6BCB2",
"<X c #C1BBA5",
"1X c #D9C586",
"2X c #CDC49A",
"3X c #D3C895",
"4X c #CCC288",
"5X c #D7C8A7",
"6X c #CBC0B5",
"7X c #DACBB3",
"8X c #DCD6BB",
"9X c #D9D4AB",
"0X c #E4D4B1",
"qX c #C9CACC",
"wX c gray83",
"eX c #EBE6CB",
"rX c #E8E4C5",
"tX c #F5F3D1",
"yX c #E8E5D2",
"uX c #F6F6E6",
"iX c #FBFDF5",
"pX c None",
/* pixels */
"pXpXpXpXpXpXpXpXpXpXpXpXpXpXpXpXpXpXpXpXpXpXpXpXpXpXpXpXpXpXpXpXpX",
"pXpXpXpXpXpXpXpXpXpXpXpXpXpXpXpXpXpXpXpXpXpXpXpXpXpXpXpXpXpXpXpXpX",
"pXpXpXpXpXpXpXpXpXpXpXpXpXpXpXpXP.r.@XpXpXpXpXpXpXpXpXpXpXpXpXpXpX",
"pXpXpXpXpXpXpXpXpXpXpXpXpXpXpX9 yXj eXl pXpXpXpXpXpXpXpXpXpXpXpXpX",
"pXpXpXpXpXpXpXpXpXpXpXpXpXpXpX< eX6 rXf pXpXpXpXpXpXpXpXpXpXpXpXpX",
"pXpXpXpXpXpXpXpXpXpXpXpXpXpXpXo.Z.o.{.l pXpXpXpXpXpXpXpXpXpXpXpXpX",
"pXpXpXpXpXpXpXpXpXpXpXpXpXpXpXX.<X8.eXm pXpXpXpXpXpXpXpXpXpXpXpXpX",
"pXpXpXpXpXpXpXpXpXpXpXpXpXpXpX9 2Xw.I [ pXpXpXpXpXpXpXpXpXpXpXpXpX",
"pXpXpXpXpXpXpXpXpXpXpXpXpXpXpXb I./ f pXpXpXpXpXpXpXpXpXpXpXpXpXpX",
"pXpXpXpXpXpXpXpXpXpXpXpXpXpXpXq ~.*.t.pXpXpXpXpXpXpXpXpXpXpXpXpXpX",
"pXpXpXpXpXpXpXpXpXpXpXpXpXpXpX< e.k 8X_ pXpXpXpXpXpXpXpXpXpXpXpXpX",
"pXpXpXpXpXpXpXpXpXpXpXpXpX<.q.0 p 9 o.j v pXpXpXpXpXpXpXpXpXpXpXpX",
"pXpXpXpXpXpXpXpXpXpXpXS.Y 7 7 n # # q h B B 4.pXpXpXpXpXpXpXpXpXpX",
"pXpXpXpXpXpXpXpXpXpXo.7 f 5 > : 2 # # , 0 c c 8.pXpXpXpXpXpXpXpXpX",
"pXpXpXpXpXpXpXpXpXpX8X7 3XI z , # 2 1 7 k A }.iX) pXpXpXpXpXpXpXpX",
"pXpXpXpXpXpXpXpXpXpXm.B I.!.C 7 2 q q 0 ~ !.B T.0.pXpXpXpXpXpXpXpX",
"pXpXpXpXpXpXpXpXpXpXoXY k uX9XU m m , h rX0X;.;.4.pXpXpXpXpXpXpXpX",
"pXpXpXpXpXpXpXpXpXpXO.U Y XX!.` n J m.h.XX).`.{.w.pXpXpXpXpXpXpXpX",
"pXpXpXpXpXpXpXpXpXpXu.< L.Z U.U q e.K.:.XX;.9.>XpXpXpXpXpXpXpXpXpX",
"pXpXpXpXpXpXpXpXpXpXP 9 F.L %XQ 9 P.<.tX`.G B r.pXpXpXpXpXpXpXpXpX",
"pXpXpXpXpXpXpXpXpXpXpX%XL M./.p.2 9 r.8.-.-.' H.pXpXpXpXpXpXpXpXpX",
"pXpXpXpXpXpXpXpXpXpXpX9 q F -.'.1.5.) L.U.^.D./ pXpXpXpXpXpXpXpXpX",
"pXpXpXpXpXpXpXpXpXpXpXE (.{.x q.' A :.].oXG.j f pXpXpXpXpXpXpXpXpX",
"pXpXpXpXpXpXpXpXpXpXpXF.-.V :.2.! ^ F 6./.(.x.pXpXpXpXpXpXpXpXpXpX",
"pXpXpXpXpXpXpXpXpXpXpXpXS.4.:X5.C.v.d.'._.p.F.pXpXpXpXpXpXpXpXpXpX",
"pXpXpXpXpXpXpXpXpXpXpXpXpX6 uXV }.N.B J.4XpXpXpXpXpXpXpXpXpXpXpXpX",
"pXpXpXpXpXpXpXpXpXpXpXpXpX6 !.j R Q.6 ,.{.pXpXpXpXpXpXpXpXpXpXpXpX",
"pXpXpXpXpXpXpXpXpXpXpXpXpXL tX6 0 W.B m.tXj pXpXpXpXpXpXpXpXpXpXpX",
"pXpXpXpXpXpXpXpXpXpXpXpXpXR.V B B ' I B 9XK pXpXpXpXpXpXpXpXpXpXpX",
"pXpXpXpXpXpXpXpXpXpXpXpXpX2X0 j K ' 4.9 9.K pXpXpXpXpXpXpXpXpXpXpX",
"pXpXpXpXpXpXpXpXpXpXpXpXpX2Xh 9 B ' C w 0.V pXpXpXpXpXpXpXpXpXpXpX",
"pXpXpXpXpXpXpXpXpXpXpXpXpXI.0 9 B R 7 w L.N pXpXpXpXpXpXpXpXpXpXpX",
"pXpXpXpXpXpXpXpXpXpXpXpXpX[ H k h J 1 1 M.x pXpXpXpXpXpXpXpXpXpXpX",
"pXpXpXpXpXpXpXpXpXpXpXpXpX;.C 0 j l , 7 3.3.pXpXpXpXpXpXpXpXpXpXpX",
"pXpXpXpXpXpXpXpXpXpXpXpXpXv.' N j K g 0 /.pXpXpXpXpXpXpXpXpXpXpXpX",
"pXpXpXpXpXpXpXpXpXpXpXpXpXH.a.;.B V 0 s.b.pXpXpXpXpXpXpXpXpXpXpXpX",
"pXpXpXpXpXpXpXpXpXpXpXpXpX4.v.z.3.:.c.h.k.pXpXpXpXpXpXpXpXpXpXpXpX",
"pXpXpXpXpXpXpXpXpXpXpXpXpXpXz.>._.x.~.6.w.pXpXpXpXpXpXpXpXpXpXpXpX",
"pXpXpXpXpXpXpXpXpXpXpXpXpXpX5.v.(.v.h.x.Y.pXpXpXpXpXpXpXpXpXpXpXpX",
"pXpXpXpXpXpXpXpXpXpXpXpXpXpXi.C V.^.Z d.q.pXpXpXpXpXpXpXpXpXpXpXpX",
"pXpXpXpXpXpXpXpXpXpXpXpXpXpXg.z.].).N.c.v pXpXpXpXpXpXpXpXpXpXpXpX",
"pXpXpXpXpXpXpXpXpXpXpXpXpXpXJ.I [.^.x.b.x pXpXpXpXpXpXpXpXpXpXpXpX",
"pXpXpXpXpXpXpXpXpXpXpXpXpXpX[ 0 ]._.A .XW pXpXpXpXpXpXpXpXpXpXpXpX",
"pXpXpXpXpXpXpXpXpXpXpXpXpXJ ' k ]._.f R ~ pXpXpXpXpXpXpXpXpXpXpXpX",
"pXpXpXpXpXpXpXpXpXpXpXpXpXm.' C g.l.0 ' g.pXpXpXpXpXpXpXpXpXpXpXpX",
"pXpXpXpXpXpXpXpXpXpXpXpXpXpXz.G l.l.0 d.n.pXpXpXpXpXpXpXpXpXpXpXpX",
"pXpXpXpXpXpXpXpXpXpXpXpXpXpXv.>.z.k.s.k.pXpXpXpXpXpXpXpXpXpXpXpXpX",
"pXpXpXpXpXpXpXpXpXpXpXpXpXpX^.a.d.z.d.g.pXpXpXpXpXpXpXpXpXpXpXpXpX",
"pXpXpXpXpXpXpXpXpXpXpXpXpXpXN.a.6.h.d.3.pXpXpXpXpXpXpXpXpXpXpXpXpX",
"pXpXpXpXpXpXpXpXpXpXpXpXpXpXn.a.s.g.h.n.pXpXpXpXpXpXpXpXpXpXpXpXpX",
"pXpXpXpXpXpXpXpXpXpXpXpXpXpXpXN ,.6.Q Z.pXpXpXpXpXpXpXpXpXpXpXpXpX",
"pXpXpXpXpXpXpXpXpXpXpXpXpXpXpXL l k P A.pXpXpXpXpXpXpXpXpXpXpXpXpX",
"pXpXpXpXpXpXpXpXpXpXpXpXpXpXpXW Y P m I pXpXpXpXpXpXpXpXpXpXpXpXpX",
"pXpXpXpXpXpXpXpXpXpXpXpXT.#Xo.k n b v 9.*X&XpXpXpXpXpXpXpXpXpXpXpX",
"pXpXpXpXpXpXpXpX7X>X>X>X&XR.c q M M ` y.$X,X,X,X6X,XpXpXpXpXpXpXpX",
"pXpXpXpXpXpXpXpX5X>X>XE.#X[ J 7 < < g <.:X5X$X7X$X@XpXpXpXpXpXpXpX",
"pXpXpXpXpXpXpXpXB.y.Z.W.Y.Y.r.T v v Y y.:X{.F.B.j.A.pXpXpXpXpXpXpX",
"pXpXpXpXpXpX=X#.` B.'.[.[.~.7.*.7.f.x.).XXXX/.d.<.) -XpXpXpXpXpXpX",
"pXpXpXpXpXpXs y 3 i ` S.1XA.) J Y Q ( 4.W.r.] m q { ..pXpXpXpXpXpX",
"pXpXpXpXpXpX%.- o O ; * 4 4 # # + + + , 2 4 = O O * P.qXpXpXpXpXpX",
"pXpXpXpX-X@.3 % O ; = 3 # o . . . . . + - 3 - % + a { =XqXpXpXpXpX",
"pXpXpX+X .3 +   . o % * * + + + + % @ & = & o o o - ; { OXqXwXpXpX",
"pXpX%.s 3 & o . O   o Y ! F S D S S T J + +     o O % = d %.;XpXpX",
"pXpXpXa o     o     , ;.Q =.F ! ! ! ! *.* @ o       % r e u ;XpXpX",
"pXpX@.y r & O o     p K E T Z Y T =.=.( # o   . O O $ & y { OXpXpX",
"pXpX} + O O $ ; - & & & o o o X . O + o $ & * = 8 e - e a a d pXpX",
"pXpXpXu 3 O . $ $ ; - r e ; ; & & = - - y t r * & O O & 8 u pXpXpX",
"pXpXpXpXpX- - r t } | d - .     o O + & t  .+.} u 8 8 pXpXpXpXpXpX",
"pXpXpXpXpXpXpXpXpXpXpXpXpX& * * & - * + pXpXpXpXpXpXpXpXpXpXpXpXpX",
"pXpXpXpXpXpXpXpXpXpXpXpXpXpXpXpXpXpXpXpXpXpXpXpXpXpXpXpXpXpXpXpXpX"
};
