/* XPM */
static char *_037_14ff0b9be9fcf53415830d4544dde2bdd55060da61cd502601ff6772c2f449cb[] = {
/* columns rows colors chars-per-pixel */
"80 80 109 2 ",
"   c #0D1215",
".  c #101616",
"X  c #141B1B",
"o  c #181D1D",
"O  c #17201F",
"+  c #19221F",
"@  c #1A1E21",
"#  c #1D2324",
"$  c #1F2827",
"%  c #1F2629",
"&  c #212626",
"*  c #222927",
"=  c #222629",
"-  c #242C2C",
";  c #292E2E",
":  c #27302F",
">  c #28312E",
",  c #262E31",
"<  c #292E31",
"1  c #263031",
"2  c #2C3434",
"3  c #2E3837",
"4  c #2E3738",
"5  c #2F3939",
"6  c #313736",
"7  c #313A37",
"8  c #313639",
"9  c #333C3C",
"0  c #383E3D",
"q  c #36403F",
"w  c #39423F",
"e  c #363F40",
"r  c #393E41",
"t  c #364141",
"y  c #3A4444",
"u  c #3D4946",
"i  c #3D4748",
"p  c #3E4949",
"a  c #404447",
"s  c #414A47",
"d  c #414649",
"f  c #424C4C",
"g  c #44514E",
"h  c #48534F",
"j  c #454F50",
"k  c #4A4F52",
"l  c #465251",
"z  c #4A5555",
"x  c #4C5956",
"c  c #4D5758",
"v  c #4D5A5A",
"b  c #51565A",
"n  c #515D5D",
"m  c #53615E",
"M  c #545F61",
"N  c #585D60",
"B  c #556262",
"V  c #596565",
"C  c #5A6966",
"Z  c #5D6768",
"A  c #5D6B6A",
"S  c #5F716C",
"D  c #5F7270",
"F  c #626D6D",
"G  c #62716E",
"H  c #656E70",
"J  c #696E71",
"K  c #657372",
"L  c #697575",
"P  c #6A7976",
"I  c #6C7679",
"U  c #6D7B7A",
"Y  c #717D7D",
"T  c #6F807A",
"R  c #72807E",
"E  c #747E81",
"W  c #758382",
"Q  c #7A8585",
"!  c #798886",
"~  c #7C8789",
"^  c #7C8A8A",
"/  c #818C8C",
"(  c #83918E",
")  c #858E90",
"_  c #888F95",
"`  c #859292",
"'  c #8A9596",
"]  c #8B9996",
"[  c #8B9499",
"{  c #8D9A9A",
"}  c #929D9D",
"|  c #94A09E",
" . c #949EA0",
".. c #95A3A3",
"X. c #99A3A4",
"o. c #9DA7A8",
"O. c #9EA9AA",
"+. c #A2ACAD",
"@. c #A5B1B2",
"#. c #A9B4B5",
"$. c #ADB6B9",
"%. c #AFBCBB",
"&. c #B1BBBB",
"*. c #B4C0BC",
"=. c #B7C2C4",
"-. c #B8C4C4",
";. c #BDC9C9",
":. c #C2CCCE",
">. c #C6D0D1",
/* pixels */
"9 y y e 7 2 2 2 5 p j p f y i e 9 s f r 9 e e d z l z U E U C c e # ; ; l U t 9 q 3 3 l t g t i e 2 4 e e e v j A ^ M e , # e v z , , e , - e r e e e e e 5 5 p ",
"t e e 9 t t q 9 t y p p t u p 9 9 t y l 9 - = y z p f y p v U I t - 7 2 J y 2 - 3 2 t t f y 8 9 9 e 2 e i t 4 e z A V V p e i c c e @ , , , , e r e e e e 4 p B ",
"5 y 9 9 9 e f f 9 t l x u 7 2 9 t 2 2 e z y 2 , j D M v v v B U B u t 6 h q 9 9 2 9 9 t u 2 7 9 < 4 e e , e c V B e e e e j v p D ~ z - 2 , 4 4 e r 4 % p c 1 e ",
"u t e e e e b f q 5 l p l z 2 2 2 d r 2 y y 7 2 4 c K I B u t y C K L l 7 > q ; t 9 i i 9 9 9 e e 4 e - e M e e c c v z p e 1 e e e E c % - < e , e 2 v B e e 1 ",
"p p t 5 i z m f g q p v G g 9 6 f Q l > 8 f y 2 , 5 f f e 9 5 p g g C P Y g t 2 e 9 i 4 4 r r y e 8 , 9 Z 4 < i e e e e l c t , 5 y i E c - % , 2 2 c E e % e e ",
"u u y 4 p B f s f y c ` L f s f s 7 9 6 2 y 9 t e < 4 d n M p p x A A B S / B , 9 l y 8 t j s y e 8 e j 2 2 y 8 e , e e e e p e , i y e M A c @ @ , p p e e e t ",
"y u l t u u q n x t t { | 3 y y q x q 7 w h w t f l y e x l v A x m K S c ^ { K 5 f e e y f f k i c M 4 < 9 2 9 e 2 e e t p y e 4 e p e e j D E p e e i e e e t ",
"p c l n n c p C x 5 7 x ;.V > 9 5 7 q 2 2 2 2 t d f f Z U 5 f F D v p l v v U W M y e 8 8 8 8 8 e c e y e 4 9 4 , e e e e t p p p z c y i i p A V c e i e e t i ",
"g z v B h q g z z q w w ] #.3 7 q 7 t > 2 : 2 9 j e d ) c z k i u K p 5 i e 8 2 y M k j 0 0 8 r Z y y i i d r 9 e e e e e e t p z c l y e y p n p 9 2 e t 9 p p ",
"g x v u x x s x g g g x C %.( 3 t t u 7 2 7 7 9 y y I A c y j - e l c c f y y y p v H M f f r k y e y y i f M z i e i i t y e e 5 j C c i y p c B i y s l p c B ",
"f x l m u m v x g x x m m x #.v q q 9 2 5 t w > 9 } } M V c j 9 y c p n l t y k p c M d a a a 0 y i y r e e u i c p y y i y t y i e t c i e p M Y H B B A C B V ",
"q f n Z z p C L x G P x C y | $.w 2 3 - ; : 3 m Q [  .M c c b y p l i l M l 7 9 j k j i s 9 y y 7 9 y e y f f v p p i e e j p p t 5 9 i j t e - i H = 2 = 9 z t ",
"s p f v l u m ^ B B ` ^ F p m X.Q w d i 9 w f H n ) >.I c z f i l y x d z f 7 2 r i s f f y y a 9 9 y e i l p l p y y y p p c e i 4 1 p e 7 r 2 , / e 2 5 q y f ",
"x n 5 v A C v u u S { ..L y Z U ~ Z l e q f Z e o.Y ) #.W p c z f l f m t s s 7 j y f f 0 w 8 y r y y i u g y y i p p y e e e e k 5 , 9 2 2 9 9 @ j b - - 2 t u ",
"7 z x y P m g U ^ ! x T { C n L Z M l y f Q V H o.N ~ 9 y j y f u y y z f y h z b y w y a s i k s 7 y f p p p p i i j e 4 e c A i 4 y 5 4 2 e 2 2 - k 8 , 1 4 2 ",
"- % I Q A m l z A K l G v n b 7 F H n z R n z  . .c ~ Z z t f v n v g f z B g s y y 9 0 a w l x 2 2 y j f y p p y p i e e e Z p e e 7 2 2 2 < < 2 , 2 d 2 % , 2 ",
"W ^ { :.G 7 u u x u T u q u T c p K Q 4 W A H ) ^ p p D H B y s v v f i B I z p y t 0 9 8 8 z 0 2 2 3 q s u y q w g f p l 9 u i e t 5 2 4 2 2 < - < < 6 y t - 8 ",
"W I y ^ *.w y z p h g T x m ^ x - l #.O.O.U c j A ^ l A l M m f t z K B B A K U v 2 8 b k k b 2 2 2 q s u q w f x l f 9 l 9 t y i t i 9 2 5 7 9 2 r < 8 9 H A E ",
"9 q w G *.( l p p x u w T q q q c U ..$.@.O.n n c A C v v p S n g n l y p D A M f q y f y 7 6 6 7 2 7 7 9 5 i l g y 7 6 p y e t 9 9 , e 2 , 4 < = 8 f k F B p f ",
"5 t q u C ..P g m p w q T h x ] ` U v 2 5 p K K l l Z B x c B v z q t e 1 t y 7 s t 7 w s a ; 2 9 2 2 7 y y e i t y t 9 y i e 5 , 2 e 2 e i 2 < 2 k c d 3 2 1 9 ",
"q p t q 5 K } p p p p u B W ` O.p e v D p p p D I m x D v n v v l u e i e 4 7 4 f f y 8 6 6 0 * : 3 7 i j 9 4 y 9 j 2 r e 9 5 - , < - 8 4 i k N 7 7 , % 9 t 5 7 ",
"q v q q u p ` ^ t t y m ` W l q t p e p V B p c A B t y l y j j p 9 t 5 2 7 7 t x k 6 * ; ; 8 2 2 2 2 s f > ; < , r 4 4 - , i e @ e @ @ 2 e j c c t e 2 = t g t ",
"v q 3 q p m m #.W 5 ! O.` A p p p m p v A p y p U p V B p p 9 2 9 1 t l 4 t 0 8 8 6 & = & * ; ; 7 2 6 a 2 : 9 2 % # , 2 , - r j , < d @ @ 4 2 d t i y y 2 w x m ",
"y u u q q p y P @.%.$.I n A v C B B c M D p 5 p z u 4 I l t j 9 5 5 5 t 8 0 2 & 2 8 6 8 8 6 d 0 t 8 j y 2 ; 7 3 1 % @ = 4 , , e e , V V , = @ e e f e 9 g s u w ",
"3 5 3 q y : q ^ ! L f ` A l l u e e t t 5 i 4 , 5 f 4 t ] s y b u y 9 ; 3 5 9 9 0 6 a J ; ; a r 8 y w 9 9 6 2 7 1 2 @ o @ - < d j i 9 i v < % 2 9 l g u q q p 5 ",
"q y g > 1 A %.^ G R W v 5 u u 1 1 4 1 1 5 5 e 4 4 2 y 2 V [ f s f f 9 8 5 7 s y ; & 6 8 a k < ; 2 y 9 y 7 2 2 7 2 ; ; 0 b b i r 4 < 9 = y Z v e z 7 u l w y 9 5 ",
"t q h g I @.U l ! W B v p p 3 3 % 1 e e p t 5 5 2 2 9 y 7 L } F z g s f y 9 2 2 ; & o o & N d ; 7 e - 8 w 2 2 2 t 2 I N ; @ - @ r - b K , 4 Z p t b 7 7 g u e y ",
"3 P { | ..c B / B p i v y y t 5 t i - p p 5 e e 9 4 8 9 9 8 Z H B f x j s f 9 * ; ; & & & & 0 0 - - 2 = ; 6 ; 6 9 n z @ $ = < @ z 6 l M 8 % % y t B G s V w 5 y ",
"o.:.` B v K W B j p 9 9 p 2 > - e t e v n 5 q 7 t q 9 t t y 9 k b Y s 7 y s s z ; * ; * # @ & ; ; ; 2 ; - - 0 6 $ f 9 = $ # - c ] B # , 7 7 w q p A L h E l y u ",
"{ C l u G K l l p t 2 > > 3 7 2 $ - , e F l 5 3 9 7 5 2 7 y p j q c H f 0 9 8 b 0 ; * ; * & ; = ; * = = 2 - o & ; s 9 = - f 4 d B 7 9 p 3 y 9 x m z F m p D p ^ ",
"u x A l v B v c y 3 2 > > > 2 7 1 1 % $ 2 V 3 2 2 7 2 ; 2 2 7 r t 0 d Y L c 2 - w a 6 * - 0 - - 6 = - - ; < o o - j 8   f Q 9 C > y 7 y f y t g x 2 B U c E ..^ ",
"x p l B v i p l 5 2 2 2 > 2 2 > 1 1 - 2 - t V 5 7 t 2 7 5 8 - 2 u y t f m f s 9 ; 0 6 # * 2 8 6 > 6 ; = ; = ; z 2 # F & z f 8 e 3 7 5 : z u 9 9 p h p Y ^ @.+.^ ",
"$.^ l j p i p 4 9 a ; ; ; 2 2 , 2 ; ; 2 2 & k J 9 , 8 8 4 4 2 4 f f p 7 7 y v B 9 6 6 2 * ; s 9 8 2 & & ; 6 - 8 F k s I j : 2 9 2 w u 5 g z 7 2 f B K ' E ^ =...",
"[ -.` p y p 5 - > < 2 2 2 8 e 9 2 - 2 7 > ; & 8 b e < 2 2 2 7 i s f i f 7 y y f x h w 7 t w 2 8 7 = & - 2 q < & ; U Y Y l = 9 y y a 7 7 3 3 c U } ] r 8 A c v B ",
"v A } I p y e 4 2 - * ; ; # k i ; ; 2 2 ; - ; ; 2 b y % - ; 5 y y f u l s 6 6 8 x f f y a g l l y - - * 4 9 2 < 6 ; Z [ b % 2 9 t y B l g } } Y g x f n C n V B ",
"C p n { D e i 4 * ; = # $ $ 8 f : = = - & - < 6 1 $ f l # 1 p p u s 2 y n a d 0 y Z Z x z v x n n x s d < < 9 2 t t d n Q % 2 8 t b Y Y Q H V n q z f n B M M m ",
"c B c B ` U 2 - * * - * = 1 - y f * 2 - - > > - : : 3 g m v l 5 8 y J ` F s f s 7 j V Y D c 9 7 t Y E y r 2 2 2 9 3 5 < H 5 - f z Z ] @.t f f y c c u v B v l v ",
"p v A v A ^ C i * - - ; : - = # v v X - - 2 6 = % 3 y y p v t A / &.-.Y n u m y 0 8 s h y 9 7 w y x n $ - < = 6 2 2 < k = 3 2 t z B Z c 9 y 9 e q p c n m B l l ",
"y y B B M U k i Z 0 = ; - - , - % b d # - 3 3 3 q u t u l U { @.| R Z x z 8 a f f 7 2 9 l M z p j 2 n z r - = & > 2 - 2 k 9 r b d 9 f t y f j i 5 y u u v P m t ",
"p p p m M L N e 2 k k < $ 2 4 , - = N 8 q u w p u p x P { @...D s 0 9 f z j 6 0 t d j e e s l U Y n p z j e < = X 2 j Z n X , f ; 8 9 2 y b f e t w q l p v W B ",
"v c p p p U V m e 2 e l i , % 1 - 2 e j j i e i p p D O.D B x p s e t i f c l q 2 7 p l g f y f m ! ! B 5 p z c F E P L 9 O - s l p y e j 9 y e 3 q B p v v z W ",
"p p p z c m z y c v p M M y t i y y y i l i r y t p p U W x x p s c f t t v y t 2 7 w y p l u u v l F ^ B u l c B Y V P F 2 ; $ 4 4 e I H B e 2 g A x l G c v l ",
"p p v C m x c v V D A i t j j c z j z p l p j t t p p c W U z z v C p t t z t e i y p z u p t l v f u l ^ [ U U m S C P P K n z f k F A M H } B L n x U U v l j ",
"p v z p p l p p p v p e t u u p i j c p p y e p p p D m v U p p L W W B p v p i s s j f j p i e y y c l v  .W W L G G P U U U F V k 8 . 4 5 K ) P G ..| K x i f ",
"l p t 4 l x y p D p i i e e i e e p p t i p p p p x v c c I H z c W E B C m i i f s p v j e e e u q v n g u T U S T K K P T W ^ P m A v z < 9 [ ^ L A g y f t s ",
"u y i y p p B D p v i e t e e e p c i i p p p p p t t p c V E D v V D p c c M M j e i k e e e y u u x n g p m C U ! D S K P P P ^ ^ ^ ` X.F < 2 T l q q y s 8 9 ",
"i p p C j p j p p p p v p i e p p i i t e y l l y y e e t p C K D V A v i p p p i y y y 5 t e i g z g g u x g p m T T m A S A P T K K I U ' F y F V 7 f l y y t ",
"i t t v p p p p i i p t t i e e e i i t p p p c p i y t p p z z c x m A m c l p d y t y t i e i f g f u u g g v g B W P S P ` W P A S U U E { o.F A z f u r y j ",
"t y y l i y y y l c y 2 y r e y t y p e i i p z i i p i i j j z v v l n U Z t f f 9 9 p y y y f u g h g x g s x m s S W P K T K S S S S D T ' =.] Z L i f l l s ",
"C n j b t 4 r k t i p 9 y y y p e y p y i e y y y p p i j i k n z B l v C ] C 9 p i l c f y f i u g l s a f g g n g n Q R K m m C B B S S T K Y @.( Q z t x C n ",
"n y f y i y l j 9 y u q e y i i i i e 9 i y y i e t y y y y i j p n l l v F ` Y f f p b z g t t p l y i f f f l s g S ( ! G v x v v x v l f 3 $ f W [ Q x Z Z F ",
"7 t t y f i e i 9 f y t t t i i t e 4 9 y e i e y e i e e e i y v C l j f B I F H f f z s l y e t f s f f s s f s g m W G m C v p p x p q q 7 t - & n ` Y t 9 7 ",
"l y i y 9 i y y i l y y e t i p e e 9 e e p e e e e y y e e e c k u t y p y K n n n l p l p t i y 9 f f y p y f u u j C S C C p t t p u p t 5 t 2 7 2 x / j 2 9 ",
"l z 9 7 s t e f p t p t e 5 e e 5 4 4 e i e i e i e e y e e M v e 9 p p p p z Z V n f x f e 9 4 t y i i y f y z g u l z C m g y q q t q p t t t 8 2 7 j n Q B r ",
"M i 8 i y y y e p p t e 1 e e e e e 4 e e 4 4 e t 5 e 4 e j z 4 5 e i p y s i j f z n x i e e e 9 y f s y y s f g f p L K j y t q q t t q q t t 7 7 l 9 s Y ` Q ",
"E t 8 f i p j 9 p p t e p e e e 9 e 4 4 4 e 2 < p i 5 y p e 4 e 5 5 i i p f e y y f y y 4 e 9 r y y y y p t l f g l U H j l z i t u u p g p p l l f y 2 s s n ] ",
"{ ! v y q y t i p p p y p p i e e 5 5 5 5 5 8 e e z z r 4 4 e e e 9 e r t z y 5 m v p r 9 9 r e e i y t u l l f u c ! B v x m x x x q t u t t g u t q g 5 t C T ",
"F ^ M y t e l c y p p t p p 1 e t 5 5 e t e i y e j e 2 2 e < 4 e y e e 7 i B ^ L y i 9 t t t t u i t y y x c z n C D I C u g g g T T t p x m x g x l m g S T g ",
"1 A W M A U ! z t p p y t e e 2 5 t t t 5 5 2 9 y t 5 e 2 2 4 , - 5 4 2 c _ $.Q y y y e e y i y y u y i z l j U l y l W ^ C p g g g m T g x m x t u p p v C t g ",
"l 4 U W K z t y t e e t y t i e t t t t 5 4 , < 9 7 9 9 2 , 2 j l A H E ) Y p t t t f t 9 i e e t y y g v S L V f p p U ` ! p u g g t m T x m m g p u u q q g p ",
"g u x T P v B v A j A I V p i i p p p p l p 5 e t 2 9 > - 2 i M ~ @.} K y t t u y f t s 5 5 y i y l c l K ` f y j l g p ! ..v u g g g u m S T p p u u q 5 p p u ",
"g v g m W D A c e 5 j j D [ D p p p v v x l f c p n Z y Z H j ^ L s 9 u y f u u t j 9 z p p v p l v p V ^ c t t t y p t g ] T q u g g g g m g g t u q q t p p p ",
"S A T ^ K A l 4 2 , e p y p D A m v p x p p f y C ^ / / M K } U 7 7 s g q u s s y y l B B m V p p p A ..B 5 t 9 y y p 9 3 B ` S u t t x m x u u p u g u p p p l ",
"{ ` U B p v B c 5 e t 5 1 , , v W B x p x m n [ +.] V n - ~ A - 4 7 2 s y y 9 z n c j p y C A p l p ^ { p y y 9 9 t y t q u C S m u g g m x g u g x l g v B v W ",
"S m p p u p C B P q 4 5 2 q 9 e p m A g P U W Q K l F V 7 y 7 2 > 7 u s t t y f l f l y t v n C B A ^ D C n l y e t i e t l C x p p p p p x x p p l D D D W D v ",
"p y l p l x B S C m 9 q t t t 5 5 t v B W ` H K K i 7 9 y : 7 7 6 7 7 9 3 w y y u t s f n f v n c ` ! A P K l q t y t e t u p p p y t p p x p x m m B B v B T D ",
"p p p h m p p S B K T c q 7 t 5 2 p G ^ U m q g e 2 w y u 2 > 2 q > 6 0 f 9 p y s i y f i e j t C ` D K P m f 7 4 5 e 5 5 p t y p p p p g m m m D l l l v p p p ",
"l p w u p p p B v l K W p 3 2 % z v z ! l q 9 y l f 4 8 2 r ; - 2 8 9 l y > 9 y f t t w 7 9 9 i ` I B D g t p y 1 e e y t l p p x x m B v l x x v l v B l l p p ",
"p p p t p m x p p v l l K E P c c l A B S l 9 j x w - - ; 3 6 2 2 2 3 x 2 7 p l 9 7 7 9 2 8 , ~ K 4 p B v u p p t e t t e e i l p p p p p p l p l l v p t l t 5 ",
"p y v m x p p p v v x p y K ^ U l P ` T Y v 5 7 6 ; & = # ; ; 8 f q B l y s y - 2 e 8 2 e i B ) v l x m S l u u t y i e 1 i M p p t t t t p x x v v v t p t t A ",
"p y p p p x p u y p l p t 5 x ' ! G x l f 9 : ; 7 2 8 9 2 y y f h s l 9 ; 1 7 2 2 3 7 4 y V l I z j m p B p 3 q y i 5 e j p e e t t 5 t t x p x B B l t p j A M ",
"v p p p p t q q t y l c l p p p ! L m f q q w 8 r 8 Z k $ 9 a 7 9 u 9 9 7 2 7 : 2 2 e f c i l M y j c f y e u 9 e e p z c e 2 1 5 t 5 t p p p p p l p v l l p p ",
"m p m p p p y e e e t p p v p p z K K k 7 y j 9 = ; 8 9 b y ; 2 r 0 t w 2 7 3 2 1 5 p p e p B V A A B l p t e 1 t m p e e e e 1 1 5 t t t e t e c M l p t p p B ",
"v p p p p t t t t e i p x v p m p v A Z l 2 Z 4 - + o . y B 2 2 0 2 2 a 3 3 7 2 e t p p e B M D B m V v c p e t M t 4 e e 1 1 1 5 t e 5 p e i c v p 5 e p p p l ",
"v p p p i t t i t i p t p p p v p z y v p z z ; ; - ; r - < y < - 2 ; - 7 5 2 2 y p B B l K C v V D D K p t 4 e p p i 1 e e e 4 e 1 1 1 5 p v l t i p i p t p j ",
"p y p p t p t t t t i t y v m x z p 9 l y V t 7 7 w 0 6 & & < 0 > 6 2 = ; 2 p K P x M D D V m U A l v v c M t e c p e e 1 e 5 4 4 e e e p l t p p i i i p p i j ",
"t p p t t t t t p p p p x m v p y c l 5 s y i b 8 * o & o ; $ K Y - 9 K l X 2 p z p v D D l y p m v p p t i B B p p e e 4 t e e t p 1 i v p l p t t t t i p t i ",
"p p t p t t t p p p p p p v m m c l g u f w y L w o 6 & 2 6 ; Y w # = n ] 1 # 5 t v U D i f y 1 t C D m i y p p p t 4 e t e 4 e n B c D l p p e 5 e i i p i t i ",
"p p p t t t p y p p p p m p p B F f u l z s y a L a 8 < 2 - f J h y q - W Y 1 i l x A t p p t i p i p M C n p t e t e e t i 1 4 p M B l c c t e t e 5 e i e 5 j ",
"p p p p t 5 t e p x x x p p v p p y 7 e 9 f B j y / K F * b y f / $ - 2 3 V v p c v p 5 l y p y y p e , 1 c i c c t e 1 4 p p c W D t p p p p t t e 5 t e 5 e p "
};
