/* XPM */
static char *_1624_c5578a06752fb2ab0120003a5ac3ab77b6bc2da2aa041fe693183199a345b2c3[] = {
/* columns rows colors chars-per-pixel */
"80 80 208 2 ",
"   c #261E15",
".  c #2B2419",
"X  c #322A1E",
"o  c #2A2723",
"O  c #342D24",
"+  c #362F27",
"@  c #3C352B",
"#  c #39342A",
"$  c #3A3631",
"%  c #3E3A35",
"&  c #3E3C38",
"*  c #433A2E",
"=  c #473B2C",
"-  c #443D33",
";  c #493F34",
":  c #433E39",
">  c #4B4235",
",  c #45423C",
"<  c #4C453B",
"1  c #4E483D",
"2  c #464034",
"3  c #514635",
"4  c #51473A",
"5  c #534A3D",
"6  c #594D3D",
"7  c #524837",
"8  c #5C513E",
"9  c #64543D",
"0  c #4A4642",
"q  c #4D4944",
"w  c #4A4947",
"e  c #544C43",
"r  c #594F42",
"t  c #524E4A",
"y  c #575045",
"u  c #5B5245",
"i  c #55524C",
"p  c #5B544B",
"a  c #5E584E",
"s  c #565553",
"d  c #5A5652",
"f  c #5D5954",
"g  c #5D5C59",
"h  c #625644",
"j  c #695A47",
"k  c #61574A",
"l  c #635A4C",
"z  c #6A5D4C",
"x  c #635846",
"c  c #635C53",
"v  c #685E52",
"b  c #615E5A",
"n  c #6E614E",
"m  c #67604E",
"M  c #73634D",
"N  c #666056",
"B  c #6C6254",
"V  c #65625C",
"C  c #6C655C",
"Z  c #6E695D",
"A  c #726553",
"S  c #756855",
"D  c #7A6B55",
"F  c #71665A",
"G  c #736A5C",
"H  c #7A6D5C",
"J  c #7D715E",
"K  c #5E5E61",
"L  c #656462",
"P  c #6A6662",
"I  c #6D6A64",
"U  c #6D6C6A",
"Y  c #66676A",
"T  c #736D64",
"R  c #726E6A",
"E  c #796F63",
"W  c #767066",
"Q  c #7C7364",
"!  c #75726C",
"~  c #7B746C",
"^  c #7E786E",
"/  c #716F71",
"(  c #757473",
")  c #797672",
"_  c #7D7A74",
"`  c #757679",
"'  c #7D7C7B",
"]  c #78787B",
"[  c #6D6F72",
"{  c #82735D",
"}  c #806F5B",
"|  c #827563",
" . c #847966",
".. c #8B7D66",
"X. c #847A6D",
"o. c #8A7D6B",
"O. c #81766A",
"+. c #837D74",
"@. c #897F71",
"#. c #817E7A",
"$. c #8D816D",
"%. c #93846B",
"&. c #868075",
"*. c #8B8274",
"=. c #84827D",
"-. c #8B857C",
";. c #8E897E",
":. c #928573",
">. c #948975",
",. c #938B7D",
"<. c #998E7C",
"1. c #948978",
"2. c #9A907F",
"3. c #7D7E81",
"4. c #817F82",
"5. c #7F8084",
"6. c #848483",
"7. c #898782",
"8. c #8C8A85",
"9. c #858589",
"0. c #8C8C8B",
"q. c #888889",
"w. c #938D84",
"e. c #918E8A",
"r. c #988F82",
"t. c #969186",
"y. c #9B9385",
"u. c #94928C",
"i. c #9B958B",
"p. c #9D998E",
"a. c #8D8E92",
"s. c #949493",
"d. c #999692",
"f. c #9C9A94",
"g. c #94969A",
"h. c #97989B",
"j. c #9C9C9B",
"k. c #979893",
"l. c #8F9094",
"z. c #A29A8C",
"x. c #A09788",
"c. c #A29D93",
"v. c #A89F90",
"b. c #A19E9A",
"n. c #9FA09B",
"m. c #A5A096",
"M. c #AAA295",
"N. c #A4A29C",
"B. c #AAA59C",
"V. c #ADA99E",
"C. c #B1AA9E",
"Z. c #B0A798",
"A. c #ACA18F",
"S. c #9D9EA1",
"D. c #969AA2",
"F. c #9FA0A2",
"G. c #A3A3A3",
"H. c #A9A7A2",
"J. c #ADAAA4",
"K. c #A5A6AA",
"L. c #A7A8AA",
"P. c #ACACAB",
"I. c #A8A8A7",
"U. c #B2ADA4",
"Y. c #B2AEA9",
"T. c #B9AFA5",
"R. c #AFB0AB",
"E. c #B5B0A6",
"W. c #BAB2A6",
"Q. c #B4B2AB",
"!. c #BAB5AC",
"~. c #BDB8AF",
"^. c #ADAEB1",
"/. c #AFB0B3",
"(. c #B4B4B3",
"). c #BAB7B1",
"_. c #BDBAB4",
"`. c #B5B6B9",
"'. c #B6B9BB",
"]. c #BBBCBB",
"[. c #B6B8B7",
"{. c #C1BDB4",
"}. c #C2BFB9",
"|. c #BFC0BB",
" X c #C5C0B6",
".X c #C4C2BC",
"XX c #C9C5BE",
"oX c #CBC6BB",
"OX c #BDBEC2",
"+X c #BFC1C3",
"@X c #C5C4C2",
"#X c #CAC7C1",
"$X c #CCCAC4",
"%X c #CDCDC9",
"&X c #C6C7C9",
"*X c #D0CDC6",
"=X c #D1CEC9",
"-X c #D3D2CD",
";X c #D9D5CF",
":X c #D6D5D2",
">X c #DBDAD5",
",X c #DADAD5",
"<X c #DFE0DB",
"1X c #E2E1DD",
"2X c #E5E5E1",
"3X c #EBEAE6",
"4X c #F2F2EE",
"5X c #EFF1EC",
/* pixels */
"E c c c b t R ( P L Y L V L g Y U q 1 d I P L b a f f b d T c.N.N.B.N.c.N.c.J.).>Xb.; c T ~ ! I c d k b p t d k b V b +.w.T k 0 y J Q S _ f.(.OX&X@X^.s.-.Q T I ",
"Z c a i t k I U L P L b L P g K V y P I I U U V i s f w 5 G +.N.J.J.J.N.j.m.N.H.@X.Xk < v C c r e q y y r 0 ; 0 e d b e.S.G.H.b.[ i m j./.'.`.(.(.`.'.@X+XN.W X.",
"P k 1 @ v +.q P K b g g P L s w c a i V L V b f w i q % Q t.p &.f.H.J.U.J.B.H.N.Y.$Xv.v 0 k k p e 4 e u 0 - - - - 4 v ( u.j.j.g.s.9.9.F.I.K.G.L.^.(.^./.[.&XH.N ",
"4 4 ; b u.G.P : 0 0 w w 0 : & $ c C < p g a i t q , O q c.M.< 1 @.f.b.B.H.N.m.N.b._.}.T.@.r p p e e e p u ; - 4 T z.v.d b P b d I 5.s.0.j.D.S.K.G.L.L.P./.(.@X) ",
"u r ) G.(.[.G.' s e y - 0 #.P.!.|.$X^ 2 q q t , # # s g.(.G._ O < W e.i.i.d.e.-.d.f.b.C.U.j.G.j.S.b.4.G G } <.C.W.!.{.N.E F k e f I 3.e.0.0.s.n.j.S.G.L.^.^.'.[.",
"w.T e.e.d.b.f.j.j.w.O.,.}.,X-X=X<X2X1X! 2 & & # s 9.I.(.(.(./.U # * p P R E F c Z b #.b.K.L.K.^.`.OXOXQ.v.}.}.H.H.J.J.).Q.Z.!.T.*.V 6.3.5.3.6.s.g.j.F.K.(.^.I.).",
"H.~ #.#.=.#.) #.6.L Q #X$X=X%XXX$X%X,X3XJ.G W Z ].(.(././.[.].].g.c 4 ; 0 * @ - > R h.f.j.g.S.K.K.K.^.`.U.{.i.7.8.e.e.e.G.b.v.{.,.V ( ] 7.g.0._ q.h.j.K.G.K.^.L.",
"L.d f s t 0 0 t d q f.XX.X*X-XXXXXXX%X-X<XW.p.Q.[.J.G.G.I.P.[.&X&XG.1.@.C R R q ~ l.s.h.F.F.S.F.S.S.S.K.H.-.#.E Q d.f.e.T #.H.v.*.V P I Z =.s.e.=.e.s.G.S.F.^.(.",
"c.c , i ( =.! V r @.i.z.~.$X-X$X$X#X$X$X>X~.p._.n.k.s.u.j.f.k.s.b.L.t.M.G.g.a.s ) q.k.k.g.j.s.0.s.s.j.a.k.W ! t.b.N.N.c.~ #.n.H.;.) P I C c _ ' ! ! 7.g./.L.K./.",
"0.s.f.R.R.n.k.n.I.c.&.,.V.oX#XoX$X$X$X$X.Xc.s.I.f.=.#.=.=.0.0.7.6.s.( s.h.s.q., U 0.9.9.9.0.0.] 6.' U ' ` p +.0.u.f.s.s.q.8.q.j.' ) ! 6.~ N I f y y f #.h.g.n.j.",
"=.f.k.u.8.q.u.u.N.P.+.H 2.J.$X*X-X$X X}.P.#.e.n.8.=.~ ! =.u.0.i.0.R Y g.l.0.! < u U P b a i s y 4 q : s d < W &._ 0.w.~ _ =.=.=.i ) ! 6.~ ! ! f m N u s 5.6.[ V ",
"I #.=.#._ _ #.=.7.s.j.G J $.M.W.B.!._.J._ #.k.c.7.6.=.I =.=.#.=.#.g / j.l.' 0 > ; < e , $ 2 ; < : - - % h 6 6 G _ e.e._ I C L g 5 b 6.u.8._ ) 7.=.' #.V P K , u ",
"p y V I I I I I _ #.u.k.B %.$.z.J.B.i.^ C q.f.s.k.q.8.;.=.~ _ ! ! b 0.( w $ g w.~ - ; ; @ @ : , < < 0 v %.A > > k -.=.I a y b T  .y _ k.e._ ! e.k.8.a.=./ t S m ",
"> 1 1 a I T I I ~ ( ~ 0.W { {  .p.t.o.f ~ k.f.k.k.8.=.0.0.k.f.=.Z T ! i d 6.|.:X[.=.c 4 C c O O * t Q B.X.J n > > y c r 1 5 v y.>.B b f.e.u.k.a.k.k.0.( w a k.f ",
"` - 5 V I T Z I U ! R ~ =.J >.{ { $.J B ;.8.8.k.N.P.N.G.J.P.n.=.V w.Y.R.Q._.#X-X$X).&Xw.,.C I e.G.OX-X:Xj.5 2 8 7 > 7 8 3 6 C..X .J f q.k.8.u.8.a.k.) w ] K./.F.",
"/.] @ p ! ~ ! U ~ ) _ _ ;.*. .>.$. .B W =.=.e.k.H.].].).P.j.! a #.V.J.E.J.J.[.XX=XJ.-XJ.< e.`.].[.`.OX@X:X).a X 6 7 3 < 6 N.:X,X_.+.> P =._ #.' ) I w q.L.n.F.L.",
"s.F.i @ N W ! I I R ) _ _ m._.$X:X!.,.^ T ~ 8.e.n.n.R.].[.#.u G i.v.i.m.c.z.N.J.$X.X_.=.L G.j.G.G.L.P./.(.+X&XR * A z j T.-X.X$X>X<X0.* N ! ( d d i l.G.0.q.0.0.",
"l.h.L @ 1 N W I I G c p =.;X:X$X$X,X$X*.Q I q.0.e.k.n.G.j.C H $.r.M.i.w.1.,.t.b._.).n.b ! k.j.k.G.j.b.I.P.P.[.%X) | <.{..X.X.X)._.oX1Xi.> N p a l s.h.0.q.=.3.=.",
"q.0.[ x u 1 V Z V N 4 p .X$X@XXX|.XX,XQ.T C _ 7.q.#.7.0.I A 2.o.*.i.Y.Y.@.-.t.z.p.f.t.i I q.l.s.j.G.j.g.S.G.L.].^.Q U.}.!.{.}.!.!._. X<X8. .$.$.f.g.6.6.' 3.' ' ",
"5.3.f H H * 2 i p = 8 J..X|.#X#X|.|.|.-XI 1 y Z ) 7.P i < B 2.%.o.1.V.-X}.U.z.i.w.y.f.V I 5.8.a.e.h.k.k.j.j.G.P.`.d.c.U.!.!.Q.W.!.!.).XX#XX.1.f.h.l.q.' q.5.' 3.",
"( g C Q G I V 2 @ x *.J.)..X#X.X_.).).$X~ 2 < < e p 1 G *.6 { %. .<.c.!.,X,Xc.t.M.V.m.f L ' q.q.a.0.q.u.j.j.S.F.^.1. .v.V.U.Q.U.).|.~. X#XV.N.j.8.=.q.=.6.5.7.' ",
"i i B.j.f.n.P.N.c u ,.B.Q.]..X_.).Q.Q..X=.u p 5 1 1 F C.*Xi.S %.{  .t.Q..X:XE.p.f.i.Z y L ' 7.8.0.0.8.e.s.j.j.k.D.O.}  .<.v.Y.!._.W._.XXXX.Xg.q.=.=.5._ #.8.=.I ",
", _ s._ ~ ! ' u.n.n.;.c.Q.)..X}.!.R.)._.-.{ J x T &.m.C.C.C.J D { D H -.B..X.X*.W *.B r V ' 6.7.q.7.q.0.0.s.u.s.l.:...M } i.J.U.W.)._..X|.G.q.q.5.6.=.q.7.0.=.( ",
"V 8.! I c g C ) e.J.X.f.J._.@XXX).).|.J.f.y.m.).).!.XX#XXX XX.x } A A z T i.@XX.x V.,.u V ) ' 6.7.6.q.0.0.0.q._ 7.v.<...M O.v.W.!. X}. Xf.7.' 6.6.#.` 3.7.6.] g ",
"_ R V P V i f V ~ e.~ ,.B.)..X@X).).Y.f._._.B.,.*.;.j.B.U..X@Xu j D D v z v T c ~ |.p.l C ( #.' 3.7.q.8.0.q._ N ).E.:.$.{ } %.B.Y.!.}.d.P =.6.8.a.7.6.6.=.' f $ ",
"a I V R I N c I I q.~ o.i.Q..X.X_.Q.f.w.!.y.*.Q X.+.&.8.-.,.B.i.= M S A 6 - #.g.K.^.-.p N ) _ =.6.=.3.8.s.6.g ;.-XN.-.T 3 M } J t.J.J.A C ! =.0.8.e.a.q.' g , x ",
"5 5 N R ! R V V I 8.W H o.b.!.]._.U.-.w.&.&.m.i.&.&.^ X.X.~ X.Q.t.7 z k : ` D.l.g.D.g.l l I ' q.7.5.3.=.V i ! n.8.8.u.f.8.* n M D *.Q *.P R ' 6.8.0.q.5.L , G %.",
"m 5 8 V I W I L ~ 7.p D | ,.N.U.B.8.G z.B.m.m.t.+.+.+.,.w.w.w.B.=X-.F X.Y q.9.4.9.a.a.P u f ' q.e.7./ s 2 V 7.-.#.#.#.-.j.~ 6 ..D v =.B.l s ( 7.e.q.6.U , a t.*.",
"u 3 u Z P V I ! ! / e { { { :.-.~ B  .*.Q.!.W.p.&.Q +.w.w.t.i.c.U.H.-.e.4.3.a.5.5.q.5.a u i s R _ V q 1 z 7.=.8.-.8.-.w.t.u.c o.-.k.OXq., y V _ q._ I , , y.).t.",
"%XN < m I I ! ~ Z f  .$.o.{ H G A 2._.H t.i.p.w.-.&.w.z.t.,.i.i.f.H.1.0.a.a.9.3.5.5.[ Z B u 5 y f q > G &.0.8.e.t.0.8.w.w.e.Q f.(.Y.^.OX9.< y s b s $ i .X2X1X2X",
"1X%X2 1 < l V Z @ 8.p.H B B z x Q XX-X..B ~ &.~ X.&.t.f.z.t.i.i.c.f.#.a.q.a.3.3.5.5.L ,.p.X.u._ R _ u B T 0.8.0.s.p.8.t.t.0.0.j.g.u.j.G.+X' < , % - l oX>X%X;X:X",
"%X<X_ 3 S u > O V (.[./.G.u.#.6.j.$X@XW m y N B T +.w.z.i.t.t.t.i.-.3.l.q.5.9.3.5.` b z. X*X-X$XXX-X,XV.y W =.=.w.u.8.8.-.7.=.e.j.f.s.j.F.[.d 2 G J !.$X.X$X$X%X",
"%X=X}.r :.{ r ' (.L.G.G.J.`.(.^.).`.'.j.l u 3 6 x T +.-.8.t.t.p.i.=.q.9.9.5.3.3.] [ _ _.$X=X*X*X-X;X1X;XF ; v ! -.8.8.7.7.U P 7.s.j.f.s.j.I.K.< Q z.].).}.}.oXoX",
"}.@X%XC  .e.h.D.9.f.G.j.j.F.k.s.j.f.g.`.h.1 8 3 4 6 h z Z G Z T Z ' 6.5.5.3.3.] 3./ 7.Q._.{.}.#XoX;X;X>XY.c 4 P ) w.w.-.+.u d ) u.e.0.j.k.j.`.#.6 C.W.{. X.X}.}.",
"_.{.@XE i.^.s.s.g.N.b.b.G.k.0.u.k.q.0.a.L.U u n h h 6 7 3 u B S t.5.' 5.3.3.3.` ` K G T.).Q.{.}.oX#X$X-X=XJ.p 4 T +.E l 0 l o.p / 7.7.l.0.s.G.D.T B.T.!._.{._._.",
"Q.Q.H.#.L.K.k.j.j.N.l.k.G.j.s.s.l.0.7.0.G.0.8 J A 3 * 5 c y m B.R.U 5.6.3.[ [ 3.K b A v.Y._.{.}.#XoX$X$X=X$Xu.4 h p < * - A :.F c ~ #.-.' =.0.g.-.c.U.E.!.!.~.!.",
"Y.U.=.9.j.G.F.j.f.j.k.s.u.f.0.i.s.0.q.s.n.l.W Q F P w.J.!.N.8.,Xa.[ 9.' ` ` ( ` Y b A @.H.U.{.!.oX#X$X*X$X*X=X+.= < ; d #./ $ < p v T R T ~ 6.a._ y.C.W.!.Q.Q.T.",
"U.+.1 C j.j.d.j.j.j.G.b.j.s.0.q.e.s.6.9.=._ N.N.).#X&XP.j.j.[.-X_ U ` ` ` 3.( U K ~ ,.| U.Z.Q.{.{.*X*X$X$X$X=X;XG l ) q.l.K.9.o + c b R R R ) ] C %.z.W.U.U.J.J.",
"&.M J < ~ u.0.=.q.s.n.G.G.j.G.N.f.j.7.#.g U }..X.X[.N.8.~ ( u.[.I s Y U Y ` U g t r.W.o.x.Q.B.Q.{.}.#X#X$X#X#X>X}.R 3.3.7.9.S.3.o 0 a Z ! E b 1 S %.>.M.V.J.B.v.",
"x y.i.5 e I #.6.7.7.9.j.n.j.J.L.j.e.] P & 0.Q.P.H.u.! V q q V s.d w w s g w w 0 e O.r.A S B.Q.Y.{.{.{.}.{.}.}.#X=X7.s L R / 9.D.K o u e d 1 # C *.{ %.<.z.v.z.1.",
"..{.,. .u < N ' 7.6.4.q.e.s.N.N.j._ L q q e.s.d.#.C i ; # # : V 0 $ : 0 , 0 $ i g.j.0.d @ H U.{._.}.}.}..XW.E.}.-Xw.0 d g K U a.D.K c F 1 i R f.e.I J %.o.%. .H ",
"E.$XX.6 < > < p / ' ( ! =.e.q.s.q.P 0 e Z P =.-.V 0 : @ * ; ; e a & & % $ $ $ 0.^.D.I.L.P * *.U.!.!.!.)._.$X$X#X$X_ 0 q d g L 5.9.l.c ,.#.e.u.7.w.H.+.{ %...{ M ",
"oXXXXXf.r   . ; < d i c I _ 6.' g : # w.~ > I N < * ; - > 1 - ~ o.< # % & $ e q.j.s.j.S.L.] k *.C.U.N.M.Y.U.)._._.T 0 q 0 s s ` 3.a.P T _ ! ~ +.) _ u.e M 9 n A.",
"XX}..X}.].~ . . - ; < e p c d , : V d..Xp < < > 2 < 2 5 1 e _ [.[.f.R a 1 B z.=.9.l.a.l.s.G.+.z *.c.U.c.p.y.z.U.y.l 0 t w s t L ] l.] 1 _ ~ ! _ #.=._ 4 H y.{.;X",
"W.{.~.E.Q.!._ . X e > > = < O N }.1X3X5Xt.O 5 > > < 4 6 I n.|.|.(..X&X|..X%X-Xw.b a.a.g.s.a.S.T n :.>.<.o.o.$.$.y.c.t t w w 0 f ` a.9.f ) ! ) ~ W R e *.~.XX}.W.",
"U.!.!.Q.U.U.Q.~   5 G r 5 < -.>X1X>X>X;X3X#.O 5 y < x ^ n.P.R.R.G.J.P.R.(._.&X#X! I q.q.a.g.j.7.h M A Q >.x.M.M.W.!.F q , < w w L ] ] t _ +.#.) ! a z 2.z.U.!.{.",
"B.U.Q.U.V.V.E.Q.+.X | $.D M.>X*XoX;X>X>X>X5XJ.e  .*.f.J.J.P.Y.P.H.j.j.N.H.R.Q.|.|.R U 6.s.s.9.C u o.C..X#X#X*X;X*X{.E - q 0 , : w Y K 4 F _ 7.-.~ k z.A.x.C.W.Q.",
"U.C.U.U.m.N.Y.!.W._ 6 o.v.#X{. XXX$X$X;X>X;X3XH.f. XN.n.n.B.Y.P.N.N.j.i.N.P.n.I.[.P.t c V g t A T.$X#XXXoX.X.X.XXX-X#X! $ , % % 0 , - v 4 4 c a e H  XC.v.W.!._.",
"U.C.M.V.B.v.U.B.J.E.X.H M.C.v.C.T.!.#X=X=X*X-X:X%XN.8.f.f.n.H.H.j.i.u.0.i.f.g.N.H.].! * : : v U._.Y.Y._.}.}.oX}.}.}.}.=XR 4 a - + 0 Y ! s + . r  .z.$X{.V.T.~._.",
"Z.B.z.c.b.i.c.i.c.H.N.Q :.M.C.M.B.V.!.*X$X*X$X:XQ._ =.0.k.p.k.k.u.t.8.e.0.e.t.j.b.Y.b.q ; e i.v.M.c.N.Q.Q.Q.).}.{.}._.{.@XT 1.@.#.] q.G.g.6.K , y.C.oX{.T.T.W.T.",
"b.v.i.i.z.c.c.i.p.N.f.O.%.y.C.Z.y.v.C.{.}.}..X@X&.N &.e.e.u.u.e.u.u.8.8.e.w.s.f.f.j.P.@.@.E 7.i.c.z.v.N.b.W.Q.Y.!.{.{.{._.b.Q d.s.6.` ! 0.0.D.k.v.x.{.{.J.U.T.U.",
"v.i.i.v.i.z.c.t.t.f.@.o.%.%.<.z.i.z.v.C.B.T.W.).f N X.=.=.e.t.-.8.8.q.i.u.u.e.e.e.d.b.B.}.X.{ i.c.x.t.i.v.b.U.U.J.U.H.U.Q.U.#.9.#.b ] #.s.s.s.S.F.} v.A.v.v.B.C.",
"i.x.i.i.t.r.,.-.w.#.o.y.<.%...o.%.o.*.,.i.V.b.-.N z C _ _ ! _ _ W _ -.8.e.e.w.-.w.0.) t.{.| A :.z.t.r.@.8.v.b.Z.G.v.v.B.J.(.^ I a.0 / f.g.0.4.7.' S G *.1.<.x.z.",
"e.1.-.@.@.@.O.O.Q l B.p.| D {  . .| } S | X.A -.p.k u c G T Q #.~ T ~ ~ +.@.+.) I y ; Z +.X.D H r.y.r.@.@.,.r.i.c.c.v.B.J.!.T V a.U ( l.u.e.( d X.r.A A G G O.*.",
"E O.E E F H F C e Z ).c.-.c 6 D ..| D S S z l .XV.A c u c E ! +.#.~ ~ ~ X.( R T e @ e 6.S.`.J.S { 8.@.E O.X.@.r.w.r.e.w.i.Y.R t 0.6.Y 4.4.' b P }.z.D M j z n G ",
"z A A z u k p 7 h #.8.q.e.8.=.c h ..| Q A C h.&XP.c < k u u z C T +.#.=.+.) ) R e 1 -.g.g.u.'.7.z { } G G | @.@.@.@.+.@.r.i.T 5 / ) L I P q T oX2X}.@.6 j j h x ",
"h 9 6 6 x n S *.i.R 7.=.=.=.e.f.N S >. .u.`.OX/.&XOXR : u u u u a B W ^ ~ ) ! ) c k #.4.6.#.0.S.k A S D S A H | E G E E O.F O.O.s P t t ; ^ ;X1X;X<X3XQ.y h A h ",
"A c Z a m <.x.XXi.R =._ 7.w.q.=.s.N &.0.g.j.^.^.^./.&Xs., e u u y e u v c C C u i E #.#.( #.' h.b j H M v A M A A j h r e k @.F : , e , E *X#X*X-X.X*X1X$XN  .%.",
"p.!..XXXt.;.%X)._ ~ ! =.0.8.=.=.t.e.V P ( q.k.s.g.g.S.(.j.u H G z ; @ > e r 4 : c #.#.#.+.-.7.b.L B S z M j z z z j 6 T e.S.h.l.S.Y 4 @.!.{.{.}.}.{.}.XX>X.XH ,.",
"j.m.E.XX=X#X#X=.R ! ) =.t.8.-.0.0.8.f , P ( =.6.s.a.g.g.^.6.x.W.2.B > O ; 5 4 p #.#.-.7.4.#.e.s./ x.x.j z B z z M z P h.l.0.0.a.g.S.c M.!.T.{.}.{.{.}.XX#X,Xb.@.",
";.w.N.!._.XXj.l V I I ~ #._ #.=.#.#.c 1 e f I ( ) 4.4.6.a.l.c.{.W..X!.w.-.x.t.+.8.#.#.7.e.0.i.h.#.v.@.h 3 = | :.:.-.9.=.6.9.#.' =.e.l.v.Z.Z.T.!.{.{. X.XXX=XQ.+.",
"S Q -.f.N._.=.# y V ! ~ &._ W I V f Z J r q e V R U U ! 3.s.,.~.%X:X,X,X:X#XU.) 6.#.#.7.e.e.f.s.w.Q.U.Q.U.7.B <.x.) ' 6.4.+.#.( ' 0.0.w.z.B.T.Q.{.{.}.}.XX*XN.B ",
"G Q Q -.k.J.! O * < d V I I c 1 $ < ,. .H p e q f L U I U L f.;X-X$X=X-X:X*XG Z #.#.7.7.7.u.j.s.b.{.)._.!._.f.,.-.b 4.9.6.6.] / ( 6.9.o.:.x.B.C.!.!.{.}.XX%XT 6 ",
"c Q Q ~ ;.u.U z u 2 - > 2 > > O < t.!.f.W - O , q i b b s i B.#X%X$XXX#X#X%X_ - ( 7.u.s.e.a.0._ b.).Q.J.f.i.J.H.b g _ ( #.' ' ( ' ' ] T @.o.:.y.C.Q.}..XXX).p y ",
"N H G H Q =._ &.~ 2 @ # F m u 0.|.$X#X-X%XR.W O # , , , & B B._.}._.!.!.).XXQ.s & P =.9.0.q.q.I E H.U.N.b.b.Y.N., a I ! ' [ ] ' ' [ L ~ v.>.:.$.o.t.H.Y.!.P.Q m ",
"C G T Z c E f.n.R././.) 8 ^ !..X_.W.[.).Q._.#XJ.c @ 1 N G 2.x.z.U.Q.U.m.B.!._.n.y 2 a b f f g o.z +.b.c.i.i.f.b.q , L L U ( ( ! s q y y.y.2.$.$...O. .@.t.+.O.k ",
"B c B G C ~ a.G.n.n.P.[.N B._.Q.J.B.B.P.R.J.Y.|..XN.X.M.E.y.v.2.p.V.B.c.N.V.Q._.N.z r 0 c a T M.:.x -.i.t.7.f.N.i o q s s f s , & , j.Q.i.8.Q N e 6 J  .H  .w.B ",
"Z k u c G ! I =.( R ( 0.7.B.E.Y.m.f.f.c.N.m.m.N.H.).Q.J.Z.2.x.y.<.y.i.p.f.B.N.J.].V.*.&.N.j.b.e.*.A A #.*.#.1.V.u.X 1 q , % $ & b R.-X:X>X:X%X|.L._ r 5 | XXt.W ",
"F C r l B C i U ( I ( ] 7.V.B.m.i.t.p.f.p.f.k.t.p.N.U.P.C.2.,.*. .|  .w.t.t.N.N.Q..Xc.b.i.=.=.w.R r z F T X.+.t.N.l k X.B N V k.@X].&X%X$X].Q./.(.@X'.=.-.,XX.T ",
"T G G N a u q I 7.) V I &.p.m.m.y.f.p.p.t.t.t.t.t.c.R.J.y. .*.v.*.o.O. .o.*.i.c.U.].*.#.7._ #.#.#.0 3 A O.E E -.f.e.u M.x.f.K.[.[.[..XXX|.Q.H.N.f.G.^.OX+X.XZ B ",
"B N l u y Z ^ a U ! P i W f.k.t.i.p.z.f.i.f.M.m.u.f.B.P.=.a J c.z.y.<.:.o.:.z.c._.P.W b ! E ) ~ ^ +.c r v X.#.*.t.c.G z.t.0.G.S.j.(._.[._.[.Q.G.j.j.j.G.[.[.V k ",
"u x z x u M.t.p a s w y J ;.B.B.p.f.i.t.m.N.B.J.i.n.N.B.k.u m t.B.B.N.}.#X.X{..X_.H.F r k I R T R +.6.l 8 u l T +.=.^ d.e.=.q.6.8.j.P.R.).).P.H.N.f.s.0.G.(._ 6 ",
"B z z Q m.:XW.N.k.8.! ;.H *.m.B.Q.M.m.k.p.m.B.m.p.t.j.M.N.W z *.m.U._.{.*X-X.X).{.N.c 5 5 a G I C F _ v h z G ~ z v W _ 0.' ) ) 6.u.s.j.J.P.P.N.j.f.l.0.g.P.7.J ",
"1.i..X1X1X1X5X4X5X4X4X2XR z t.m.Y.W.V.B.m.f.c.f.k.t.i.f.H.=.Q  .,.U.}._.{. X!.J.N.f.! r r e c N b I R R A E -.,.t.Q c R R ! P V C U _ i.N.j.j.b.f.k.e.0.6.f.u.r.",
"!.;X,X;X%X*X$X-X>X>X;X2X#X= W t.f.B.B.m.f.p.B.f.p.f.t.s.N.t.*.$. .y.J.Q.U.U.N.c.t.w.@.B 6 ; 5 e e T c b @.h v T C @.C d d d f s d V _ =.6.=.6.0.d.s.7.#.' s.J.T.",
"*X}.{.}.oX~.~.|.$X;X:X-X,XZ 3 w.w.p.m.c.f.p.f.f.m.t.8.t.t.8.x.2.O.Q 1.v.B.c.<.+.+.E C -.w.5 * 2 ; e < < t.w.~ ~ ( U.d i u a u u u f V c C L ! ) ' 6.' / ( =.0.}.",
"C.U.W.E.W.!.!.~._. X$X$X#X8.= W ;.t.p.c.i.t.f.t.f.i.w.t.q._ 1.<.o.O.| X.o.+.S m l c B !.oX$.u 2 < > # R ].].OX'.OX/.w r c c t e i r e e u d P b b R P L P / q.U.",
"N.V.C.U.E.!.!.!.~.~. XQ.t.N F J W ;.8.c.i.;.w.t.u.u.t.=.~ ~ m.8.u u A A F z z B B z O.r.G y 2 2 @ * u ' G.G.N.N.b.P.a.$ u c p r q e 0 e e t e s s r u d b V ~ v.",
"z.c.B.Z.J.E.E.W.W.!.Q.f.u x $. .a T ^ p.B.B.i.w.w.8.-.W I t.H.).N.E u u z B z c u p +.-.=.n.s.&.R T l V =.e.s.u.e.d.9.q a u a p r e 1 < < 5 4 1 1 < < 1 4 p *.:.",
"y.M.Z.B.V.V.V.E.Q.E.!.N.p *.&.Z 2 7 a G -.w.8.-.X.T f 5 C t.f.N.H.H.8.=.V h S S C e.L.).).[.|.|.@X&XY + c ( 4.6.4.' c *.@.; $ , y t e < 1 < , 1 1 1 e p c U.Z. ."
};
