/* XPM */
static char *_2697_1889c2282835ad41947276038cbe1a87699aa27118cbebb92bfbb395277dc5aa[] = {
/* columns rows colors chars-per-pixel */
"80 80 255 2 ",
"   c #0C0202",
".  c #030001",
"X  c #170908",
"o  c #1D1212",
"O  c #1D110C",
"+  c #26130D",
"@  c #281916",
"#  c #331D18",
"$  c #270E07",
"%  c #2D211A",
"&  c #37231B",
"*  c #3C2B24",
"=  c #362725",
"-  c #3D322C",
";  c #39302E",
":  c #482A1E",
">  c #442D24",
",  c #45332B",
"<  c #4B342D",
"1  c #4A372A",
"2  c #52382B",
"3  c #4D3B32",
"4  c #483A35",
"5  c #523D34",
"6  c #563C34",
"7  c #4D4239",
"8  c #55453C",
"9  c #5C4B3C",
"0  c #584438",
"q  c #57422D",
"w  c #644B3C",
"e  c #644A36",
"r  c #5B4C43",
"t  c #564944",
"y  c #5D5446",
"u  c #4C4441",
"i  c #624D44",
"p  c #664E45",
"a  c #645244",
"s  c #6A5445",
"d  c #65554B",
"f  c #6B554A",
"g  c #6B5B4C",
"h  c #665A49",
"j  c #745A4B",
"k  c #6C5D53",
"l  c #665B53",
"z  c #725E51",
"x  c #7B5E50",
"c  c #75624D",
"v  c #6C6457",
"b  c #746354",
"n  c #7B6955",
"m  c #73655A",
"M  c #756B5C",
"N  c #7C6C5B",
"B  c #7A6656",
"V  c #7C715C",
"C  c #73705D",
"Z  c #6E614C",
"A  c #7A6C61",
"S  c #7D7262",
"D  c #7B7768",
"F  c #7E7A72",
"G  c #836B5A",
"H  c #83735D",
"J  c #8A745D",
"K  c #93725F",
"L  c #836E62",
"P  c #847464",
"I  c #8A7463",
"U  c #8B7B65",
"Y  c #84766A",
"T  c #857B6B",
"R  c #8B7C6C",
"E  c #877869",
"W  c #927C6C",
"Q  c #937B68",
"!  c #877D71",
"~  c #927E71",
"^  c #8C826D",
"/  c #89836A",
"(  c #94836C",
")  c #98886E",
"_  c #8D8473",
"`  c #8B8777",
"'  c #938473",
"]  c #9A8474",
"[  c #948B75",
"{  c #9B8B74",
"}  c #958B7B",
"|  c #9B8C7B",
" . c #978679",
".. c #9C937C",
"X. c #99937A",
"o. c #8F907E",
"O. c #A38D7C",
"+. c #A38A79",
"@. c #A2947C",
"#. c #A4997B",
"$. c #B0947E",
"%. c #998E81",
"&. c #969382",
"*. c #9C9483",
"=. c #9C9985",
"-. c #9C9B8A",
";. c #969687",
":. c #9F9D90",
">. c #A38E81",
",. c #A39484",
"<. c #AA9683",
"1. c #A49B84",
"2. c #AB9C84",
"3. c #A59689",
"4. c #A49C8A",
"5. c #AB9C8B",
"6. c #AB978A",
"7. c #B29C8A",
"8. c #A89D91",
"9. c #B39E90",
"0. c #9FA18A",
"q. c #9FA291",
"w. c #A5A184",
"e. c #ABA286",
"r. c #A5A28C",
"t. c #ABA38C",
"y. c #ADAA8D",
"u. c #A9AA8A",
"i. c #B2A38C",
"p. c #B2AC8D",
"a. c #B3A687",
"s. c #B7B38E",
"d. c #A5A493",
"f. c #ACA493",
"g. c #A6A992",
"h. c #ACAB94",
"j. c #ACAC9B",
"k. c #A9A799",
"l. c #B3A493",
"z. c #B3AC94",
"x. c #BAAD94",
"c. c #B3AD9B",
"v. c #BBAD9B",
"b. c #B8A597",
"n. c #ADB19C",
"m. c #ADB195",
"M. c #B5B295",
"N. c #BAB395",
"B. c #BABA96",
"V. c #B4B39C",
"C. c #BBB49C",
"Z. c #BCBB9C",
"A. c #B4BA9C",
"S. c #ACB08D",
"D. c #B7ADA1",
"F. c #ADB3A3",
"G. c #B4B4A2",
"H. c #BBB5A3",
"J. c #B5BAA4",
"K. c #BBBBA4",
"L. c #B5BCAB",
"P. c #BBBDAA",
"I. c #B9B6A9",
"U. c #B3B2A7",
"Y. c #C0AD9B",
"T. c #C1B49C",
"R. c #C2BC9D",
"E. c #C3B698",
"W. c #C3AFA0",
"Q. c #C2B4A4",
"!. c #C3BDA3",
"~. c #C4BDAA",
"^. c #CABDAC",
"/. c #C8BAA5",
"(. c #C5BEB1",
"). c #BCC19D",
"_. c #BDC3A4",
"`. c #BDC3AC",
"'. c #BAC6A9",
"]. c #BDC3B2",
"[. c #BCC9B2",
"{. c #BED1B5",
"}. c #C4C19D",
"|. c #C8C39B",
" X c #C4C3A4",
".X c #CAC4A4",
"XX c #CBCAA6",
"oX c #C4C3AC",
"OX c #CAC4AC",
"+X c #C5CAAC",
"@X c #CBCBAC",
"#X c #C4C9A5",
"$X c #D1CDAD",
"%X c #D4C6AC",
"&X c #CCD2AD",
"*X c #C6D1AB",
"=X c #D3D2AD",
"-X c #C4C4B2",
";X c #CCC4B2",
":X c #C4CBB3",
">X c #CBCBB4",
",X c #C4CCBA",
"<X c #CBCCBA",
"1X c #C9C5B8",
"2X c #D2C5B3",
"3X c #D2CDB4",
"4X c #D3CCBA",
"5X c #D7C8B7",
"6X c #CCD2B4",
"7X c #CCD3BB",
"8X c #CDDABD",
"9X c #C6D3B8",
"0X c #D3D3B4",
"qX c #D3D4BC",
"wX c #DAD5BB",
"eX c #D4DBBC",
"rX c #DBDCBC",
"tX c #D9D9B6",
"yX c #DAE2BD",
"uX c #E2E4BE",
"iX c #E2D8BD",
"pX c #CCD7C3",
"aX c #D3D4C2",
"sX c #D9D5C2",
"dX c #D4DBC3",
"fX c #DBDCC4",
"gX c #DCDCCA",
"hX c #D5DAC9",
"jX c #CCCEC1",
"kX c #E2DCC8",
"lX c #E2DFD0",
"zX c #D5E1C3",
"xX c #DCE3C4",
"cX c #DCE4CB",
"vX c #DAE7C9",
"bX c #DDE8D2",
"nX c #DFF2D6",
"mX c #E2E3C4",
"MX c #E3E4CC",
"NX c #E3EBCB",
"BX c #EAECCD",
"VX c #E5E9C6",
"CX c #E7F3CD",
"ZX c #E4EBD3",
"AX c #EAECD3",
"SX c #E7E8D5",
"DX c #F3ECD8",
"FX c #EBF3D4",
"GX c #EDF3DB",
"HX c #EAF7D7",
"JX c #F4FDDB",
"KX c #F2F5D9",
"LX c #F5FCE3",
"PX c #F8FCE8",
"IX c #F8FBEC",
/* pixels */
"C.<XhXgXeX7X+XV.:XxX@X+X:XcX-X-X:Xd.J.4.l.:X[.C 3 &.' [.6Xh.'.yX'.m.F.k.,XpXQ.H.L.`.c.~.} -.P.oX5Xv.f.-X9Xx.O.&.V.7X4XG r oX7X~.$.g : c ^.4.r._.G.OX;XM.b.G.J.f.",
"H.5X2XK.P.>XdXc.~.:XG.9X1Xc.k.P.P.4.1.k.&.'.OXY 1 T ` o.*X[.u.A.u.q.].MXcX<X(.%.%.g.].Q.*.4.&.1XT.<.H.H.1X2Xz.d.c.pXsX^.z j  .lX%XU p ] 5X@.=.G.OXfXoX<XdXQ.4XsX",
"2X^.b.T 8.L.pX,.' f.P.[.~.&.8.F.,X4Xd.r.J.9X~.~.h.J.d.` [.J.' V.zXj.8X[.jXsX-X~.1X-X4X^.t.*.Y kX7.e OXqXkXkX1XsX<X^.MXAXmX~.x.^./.j O./.#.z *.>XT.>.` I.qX^.Q.aX",
"gXgXH.G.].G.1X| *.P.-X>XOX:X:XG.4X~.`.dXJ.v.>X-X8X-Xt.} A.6XV.l.j.:XZXdX(.D.j.-XjXsX7.G B I c.7.# : J OXQ.} (.gX;XW.>.v.OX4X/.J 6 2 x.%X) 0 R 2./.v.v.c.^.;Xl./.",
"^.l.k.[.pXD.,.d S K.1X .&.P.pX1Xi.R `.zX<X<.Y d.`.J.5._ r.:XQ.i.` D.:X1X5X} *.F.;X2Xv.A > f ^.~ I 6 B kXQ.4.8.(.2XT.4XsX| Y.+.] G G Y.IXPXC.l.;XQ.4.D.1Xb.x.1Xb.",
"v.Q.F.G.-X^.B.S M h.^.3Xd.d.F.;Xk.d.k.].2XP.`.`.c.2X-X+X6XV.l.~.>X[.I.MXKXhXD.I.Q.D.4.P.>.b.5X4XIXcXY.;X1X>XQ.(.H.b.f.4X~.I & : w Y.7.kXMXsXb.H.~.,.5.^.v.4.2XD.",
"<XgXLXzXD.R.wX>XA R f.sXZXpX3.E P.hXI.G.~.k.qXpX6.' z.:X5.7.+X,. X+X9.Q.ZX-Xb.3.<XD.>.I.5XQ.hX(.SXgX5X6.8.1X^.*.1X(.D.-X^.v.g # G /.LXgX^.b.I.Q.l.k.^.9.8.<Xb.v.",
"V. .G.<XW  XkX>XH.{ ..! aXgX5.! c.P.H.k.P.I.,XP.~.k.`.H.C.K.P.!.qXc.f + t %.hXI.(.D.P.D.D.U.(.b.H.2XD.(.-Xv.D.P.b.8.oXW.3.oX5Xx.SX^.~.AXT.] k.^.9.H.~.3.f.^.b.i.",
"L , d R g MX,XQ.mXOX,.2 T I.%.:Xh.,.:X-X8.].U. .t.7X-XQ w.zXf.,.fXdXL O i D.8.1Xv.%.P.;X8.I.^.8.I.^.c.U.D.9.D.(.b.3.I.l.8.D.D.^.gXD.v.Q.c.1XH.<.(.5X~ P.^.>.~.<X",
"Y } 0Xv.C.xXH.p.0X:XL * y 2Xr.P.f.4.I.J.j.j.H.K.c.-XH.x.6XJ.l.oX:X .k t D.AX-X3.c.1XQ.D.jX^.l.H.^.kXPXsXO. .sXQ.SXlX6.v.sXQ.8.(.^.c.;X^.D.4X2XQ.I.(.(.^.D.c.v.6.",
"3 ` ] /.JXr.5.mX<X~ * V H.~.:X3.3.7XI.k.L.f.,.cXoX6.VXk.OX+X| 6X(.L X t 3.1XhX3.c.(.l.D.4XY.c.~.7.,.oXW 5  . .0 fX4XSXSX;X^.fX5XBXKX^.DXPX^.lXAXv.sXIX2X6.b.Q.p ",
"eX;XC.+XOXH.0XP.| 0 0 } qXk.f.c.k.k.l.G.f.b.>XG.H.zXP.c.7X4.~.dX~ & 8 6.gXbX3.f.1X| v.jXb.>.P.W.O.;X^.6 ` 4XW } D.j ^.;Xp 3 | p 3.b.> b l.2 < ] 6 * ,.DXMXY.7.K.",
"-XI VXNX,.~.j.5.5 O Y Q.G.V.>.n.-X<.4.`.f.OXzX9.!.aXd.c.`.t.:XP.9.A  .sXgX1X3.c.f.(.aXl.b.U.c.kXaXQ.l.SX~.9.DX2X| T f.I R v.I z OX<.I 6.<.3 j 7.i > s 7.DXW.6.sX",
"C.3X>X| P m Y &   k b.pXj.>.`.G.9.h.G.9.wXcX| oXbX} l.dX] OXZX .8.jX5.1X<X3.%.D.6.<X;X6.f.(.b.3XMXl.Q.SXD.Q.sXH.4XsXv.wXwXb.4XkX7.kXAXO.kXMX+.z.MX7.X + O.kXsXD.",
"x.BXqXf + , ^.d.u 6.-Xc.4.V.P.3.,.d.c.~.6Xl.~.eX4.v.,X5.K.<X<.0XP.~ 4 t k.*.G.+.P.c.] I.k.W kXgX+.sXLX>.^.LX6.OXAX6.,.sXb.i.4XQ.T.<Xb.T.3X/.MXwX$.Q G L X b W.f.",
"fX` l A + ! AXPXjXf.L.D.*.`.c.@.;.f.6.FX`.<.MX,X<.,XoX,.7XH.5.:Xc.B 3 ,.sXk.3.k.c.9.D.3.b.sX;X7.kX;X6.kXjX,.2X4X~ c.hX6.,.ZXb.,.gXv.+.AXT.b.wX5XY.b.Q 2 + ,.^.4.",
"ZXG. .LXk.b.,XD.3.L.,...`.} ..`.8.Q.HXc.>.NXoX>.AXoXW CXJ.] ZX4.I B B b.PXI.%.c.9.5.I.6./.MXQ.T.0X^.Q.sXQ.~.l.l.H.I.>.^.OX] OX3XO.2XFXO.Q.IX7.v.oX$.: X G MXDX5.",
"~ | ,X4.6.P.8.d.F.f.1XJ.3.c.G.,.3.>XH.5 * 4.L &.6Xl.FXj.6.cXh.<.i A i o L 8.I.| *.,X6.iXFX$.%XJXb.^.IXl.>.SX3.O.4XD.z.~.~.C.H.l.%X0Xb.0XkXT.v.OX+.+ $ G X = ,.oX",
"4.H.j.' f.K.H.K.&.i OXj.f c.J.,.,XI.9.Y 4 j 5 m Y _ H.,.K.~.z.r.N < @ f qX-X .l.G.6.8.<XO.6.<X( kXlXQ 4XsXO.;X6.sX3Xl.b.7.AXl.i.AXQ.Y.MX<.J g G 2 X L iXA L <Xc.",
"~.,X' OX,X%.FXaXi   z 2 X S l.L.3.k.1XGX(.z o B r % I 4.~.J J n x = t ^.SX~.~ d.8.8.c.| e b L G 3Xx.OXsXv.wXOXT.oXv.Q.mXmXO.3XAX~ j ..6.w & I 0 . G DXKX0Xv.c.<.",
"fX5.P.L.] :XP.5 & ] 0 5 6.JXG.] c.,.f.G.W [.&.3XHX-.3 A I < A ~   4 W.IX1X' k.4.,.k.b.' 8 ( G y ] G T ~ s | T.AX<.x.MXoX] B 2.+.X $ 2 X O G +   x DXGXl.O.c.] T.",
"i.l.4.5.P.*.l.;.a & & 0 - T z.c.} c.k.| k.*.i.<Xl.C.L.k # > 6 @ < l.IXc.,.9X,.2.,X3.t.1XG.fXLXv.& # j &   x E d a f 8 g < @ < ,   N kXS L SX&.B wXH.7.C.^.O.K.qX",
"x.v.5.c.c.3.V.P.,.= } 1.% R f.d.>.A.*.' d.| h.-.' &.k.k.u L -Xt } bXj.f.].,.V.,X,.z.-X| OX<Xz.2.D.E OXH.( MXSXO.+   x < . N i   W kXAXsX2XlX4X^.~.l.v.!.z.%XOXb.",
"P.] oXdX{ J.d.| P.5.Z.P.<.+X-.( P.H.f.pXv.K.pX,.k.k.] k.8.v.hXl.G.d.5.P.h.4.c.,.v.K.5.c.k.+.,.d.| H.4Xv.D.~.b.V._ Q DXcX6.SXGX6.H.jXc.6.G.6.5.;Xb.b.-Xv.x.FX~ ( ",
"B   - ^.vX4...G.I  Xd.J 9Xd.] `.f.qX9Xl.zX'.C.CXj.@.zXD.R k.;.*.].' P.~.%.c.d.| J.C.t.oX;X^.-X~.5.8.,.c._ 5.~.t.l.4X~.2.~.<X,.I.j.~ ;X1X6.sXaX%.OXaX] m KXR Y fX",
"I z , 4 ~.AXP.W +XH.U >Xt.#.`. .O 8 r   3 >   g * O T fXhX,.X.F.' fX,X' 7Xh.' 7XY 1.ZX' t.VX} t.GX!.1.OX,.C.+Xl f f.v.~.4.,.c.5.<.G.H.f.(.~.2.oXD.l.wXj.B OX0XMX",
"rX;X3 < - ` p.z.C.0 g w...K.[ 9 V 1 Z d s ..d > 7 3 X 7 C.GX7X! V.j.X.7X4.t.dX} > w n & @ 0 + = ' NXMXt.V.K.5.3 8 2.0XH.,.f.sXgXqXMXKXAXgXDXmX2X0XjXv.!.>X~.4.G ",
"D.t.a * O / +X1.y._ J w.+XM w V ) e.X.{ Z.2.a.e.n ) Y 4 @ _ xXyX8.V.7X4.j.].( H #.p / a.P w Y s @ 9 l.JX0X<.Z.Q.5.=Xc.4.;X` i ^ d , O.n 4  .k = ] iXAXsX9.(.>X>X",
">XH., , `.JXK.i.+XoX@XV. Xm.N H w.e.M.&Xp.Z.#Xe.p.t.2.G t @ l V.c.J.r.j.<XA H { w S.p.a.XX@.@...~ # % ~ 0XJX2X2.P.x.%XzX .g < 9 b < J { 5 6 f i = z Q.T.4X3X;Xl.",
"wX1.* 8  XoXZ.K.a / M.5.+X&.a ^ X.}.}.N. XN.M. XZ.B.Z.P a , v <XJ.f.`.4.C.:Xv 0 }.#.R.@X@.=XwXi..Xz.z > H z.LXFXDXLXaXU 7 { v.R i.@Xz./.%X_ w G 5 P 3X0X~.Q.v.4X",
",.] ` 4 ,.6XM.M.[ #.V.A.oXm.v h }.B.M.&XN.R.#Xz.oX.X[ V l Y MXeXn.G.4.V.bX! % V J yXH.#.xXH.@.iXoXx.xXl.f j | mXrXH.N j <.l.$X3XOXE.2XXXE.N.@.j 0 _ BX4XOX0X3X3X",
"z.xXCXgX6XH.6XA.#.e.u.h.yXJ.% d / Z.&Xy.}.#Xp.XXR.B.h._ b k.bX9Xj.=._.c.@XzXm 1 #.@.E.yX..R.@X7.$XwXl.0X0X' H s.Y ^ 3Xl.E.0XC..XR.oX.XR.%XN.H 2 * Y fX;XsX3X@.b ",
"NXdXJ.V.{ e.#X( G ^ u.A.zXyXD 9 y.p.#XXXR.#XXXZ.@X+X..1.Y oXJX,Xh.j.4.h.eXP.* b 0 ).}.e.tXP.z.tXoXx.tXK.e.rXH.@.XXQ.i.eXOX!.$X!.R.R.3X.Xe.2.G H VXDXeXC.>X^.C.c.",
"( 5.V.A.A.( { 2.M.+XJ.eXvXo.V y.1.#XB.y.&XZ.M.6XA.Z.&X..h S A.HXdXt.n.K.>XCXM 3 X.#.}.&XC.@X$Xt.$X0X[ @.!.M { 4.b !.>X!. XOX!. XR.!.!.$XN.Z #.JXFXsX!.Q.0X' <.| ",
"7.-XH.K.w.e.5.Z.'.K.vX6Xh Z | w.&XA.Z.*XV.}.+XM.&XoXC.#X..y a D +X7Xh.V.zXeX- 8 h p.M.N.tX~.R.0X3.a a i.3XNXwXt.K.k b K.!..X.X@X~..X$X Xi.#.[ FXPXPXgXoX^.k.3.oX",
"fXOXoXV.j.z.k.G.`.yXr.h H 0.N.&XV.#X_.Z.&XV.M. XV.XX&XM.N.^ a * J.zX`.P.eX9Xt 1 V { B.@XC.0X.X[ 9 H OXKXKXGXFXLXKX:X^ x.C.OX3XR..X@XR.$XC.) N E.T M kXAXqX:XwXOX",
">X;X+XL.4.j.L.8X:X_ r X.X.C.+XM.oX_.Z.#X_. X+Xs.#X X X XC._ b d 6XHX7X<XNXcX7 a P 1.z.R.3Xl.p.] 7 r.IXMXjX-XgXIXAXk.S } OXoX~.$XOXQ.0X!. X}.H J H 1 r 4XPXqXgXgX",
"cXdXK.j.:X,XNXn.S V ....Z.B.OXZ.Z. XP.#XZ.Z.&X>XZ.0XK.Z.Z.r.T y = / LXxXbX`.{ ( U [ N.M.@.e.' a - k.LXwX4XcXfX` N y m C.C.OX3XC.@X0XN.$X.XE.0Xt.#.@.Z @ d.KXgXSX",
"dX@XeXdX7XeX/ g ( t.B.B.}.>X_.XXZ.B. Xh.e.y.M g *.y P h.[ r.| 2.! t F 8XvX+Xf.N n ^ b G R a b ( uXAX4X>X>X..V ' z 5.f.N.0X/.R.0X/..X0X/..XqXR.0Xx.( H h ~.LXsXhX",
"xXvXF v l d S X.s._.N.&XoXZ.0XN.*XH.w.M.A.tX&.V.6XF v - M S X.1.^ } D tXzX7XyXK.A.0.4.Z.n.h.mXJXfX+XOX<Xf.&.S d { Y { XXN.$X@X!.0X$X X0X@X XtXR.y.C.I @ k.IXMXSX",
"].T 8 Y X.r.r.}. XZ.@X!.B.@XM.&Xt.s.h.Z CXLXJXHXvXHXbX7X` 8 [ w...[ p.>XeX X:XNXCXPXJXvXNXFX6X XVXGXFXtXMXAXA.4.T r z a z.e.N.0X.X$X$X.X$X0XC.=X$XU H P C.p.H.NX",
"8 y ..u.Z.s.+X).).+XZ.#X X_.}.).B.B.A.D F n.dXNXzX:XdXdXzXG.' 2.( u.>X6X:XrX0X=.-.v [ v > @.r 0 } y -.tXFXcXMXFXNXVX&.M 3 9 N U |. X$X@X.X$XtXC.R.R.H c T.n s OX",
"p.[ B. XZ.).M.).).).#XB. XZ.A.).).Z.u.N.r.t t } yXbXoXJ.'.:X:X4.Z.+X'.#XeXh.P n U ..N 2.e.U E.U n ' > 9 a.@XZXFXNXsXNXFX:X..M r J a.p.E.}.E.s..Xi.) 2.W n a.R c ",
"n 1.XXZ.B.Z.B.B. XZ.R.Z._.}.N.B._._. XB.M.Z.Y , v #XHX-XV.J.h.P 1.V.P.:X6X'.H ( #.@..XM.$X~.N.0Xt.s.!.g w m 7 &.eXFXfXXXMXAXKX_.N g ( w.@.#.a.Q J ( 0 I x.b U 6.",
"H.N.M.M.Z.s.B.A.C.Z.M.Z.B.M.).Z.N._.A.M.Z.#.r.^ 7 h -.eX,XH.].1.n ( H._.dXh.Z ^ ( p.B.}..X XXX}.tX/.R.tX@.( U , > 1.BXFXMX>X7XwX0X..( Q ( Z e #.N.8 #.0XNX!. XBX",
"CXK.#XV.#X XS. X).M.#XZ.N.*Xs.B. XM.#XB.M.#.H N y 4 m #X+XP.d.h ' 1.+X`.'.+XX.w H P p..X.XOX}.=XR.XX@XR.iXx.N..XM & G =.eXLXBXoX!.0Xz..X0XR E.MXyXmXFXFXMXBXFXkX",
"c.e.y / Z.w.0Xy.p.&Xp.#X#Xt.#X).e.*Xs.w.).[ m A g.6XCX+XJ.A.'.M.&X8X1.B.`.P.yXj.g s ^ X.$X}.@XXX$XR.@X@XN.tX}.E.rX5.1 a t v 3XFX&XV.C.<Xx. X+X$XmXrXY z.!...}.=X",
"q b &.v Z a./  XM.w.&XV.s.6Xy.Z.&Xe.).m./ - g.HXLXeXA.P.A.r.[ ` h.b s 1.z.K.K.xXyXY Z H N.0XR.0XR.$X!.R.0XN.=X$XN.mXZ.J ) k % A wX+X~.1.;XH.R.FX`.g 5 w c 2 G c ",
"( / BXvX` a A.X.Z.+X#.XX+X#.&XB.N.&Xu.p.X.m CXvXoXJ.h.V._.g V S V P =.NX#X,.J.J.yXHXP { Z.R.0XZ.XXB.XXOXa.rXR.R.wXt.tXwXZ c G z.JX>XM.K.T.OXAXh.a c { U @.( n #.",
"@.u.J.eXHX&.V  X1.e.&Xw.B.&X#.#XK.e.&Xy.m m rXCX:Xh.A.r.A.6X_ V { a b ,.P.-X%.oXxXv 9 N M.~.XX3XE.wXN..XwXe.rXR.a.mX5.a.>XN @ v GX3XH.t.H.sX! > U b .. Xz #.Z.#.",
"+X..w.pXk.8  ./ }.e.p.&Xt.B.6X1.}.).w.#X_ 7 , u.CX7Xf.A.r. Xg.a g V C.VXc.C.7Xc.CXr.1 u.z.XXR.OXqXN.rXQ.s.=Xl.tX>Xw.mXK.U ( P XXLXoXz.H.c.KXU.m b b z.0X} z.3Xw.",
"#.K.,.1.[.v Z 1.^ |.B.X.*Xt.e.*Xw.)._.{ |.X.- % / FXdX4.'.S., n ^ 5 S N.eXV.V.VXoXm P { !.R.rXC..XrXp.=XM.2.BXt..XwX1.iXv.s @ ' ZXqXh.l.oXwX&.B r C.v.R.mX3..XVX",
"mX:X+Xh.M.zX` 3 [ p.).#X#.}.y.e.6Xy.M.).p.k Z 8 @ M yXL..._.0.s.*XT &X:Xr.P.C.h.r.5 R 1.#X0XN.yXH.R.tX{ |.XX2.mX2.a.mXl.N s S sXMXQ.C.t.C.>Xk 8 Y W BXc.e.BXc.<.",
"a.B | +Xt.&.zX` 0 / e.w.p.s.&XM.#.u.y.^ V 8 r 4 @ l t.u.n.T s.r.8 & R XX+Xf.K.} s / ( 1.z.XXP.2.xXc.E.=XO.=X!.2.iXv.e.XXa.1 r 3XcXv.1.~.5.c.GX .a t.#.mX;X2.mXOX",
"R l ..t.+X4.} dXX.9 8 2 M t { ..b I v 7 3 7 , ; [ yX9X` p.:Xm @ 7 #.6X1.C._.[ oX} b t.f p.x.XX@X2.uXC.a.$X) .X/.s.rXv.Y v 5 A oXsXI.@.@.cX5.;XSX} c !.<.$XwX2.$X",
"| N.vX-.R *X[ ..:X/ & _ 8 o 3 1 7 t + 4 m o l tXyX=.X.A._ S.J.v #Xn.e.J...Z.G.X.dX-.9 ^ ) }.z.p.0X#.rXe.s.|.E.XXN.2.! s * t E.FXOX@.+Xf.5.<XoX4 f ,.,.z.i.2.z.N.",
"r _ { pX} / :X..M.L.oXHXbXl X m 4 % T CXdX} &Xj...[.&.#.`.[ w.G.t.j...M.h.w.+X=.X.:Xd.h { c #.S.H X.w.1.( v 9 a / 8 + B r X - i.OXf.) rXV.) <X8.< , i 4 = 5 t 4 ",
"T oXh.@.J.4.r.,X} f.`.| <XG.f.HXh.V.bX4.w.1.Y g.1.#.d.d.'.g.#.r.[ M.r./ 6X=.( 6XX.[ :X..+ % q 7 X 1 7 = q @ 4 s   - w X > O.HX#X{ _.f.+. Xh.2.oX} ! c.m v 3.l t ",
"GXZXvX4.4.n.*.G.F.} V.k.' 0.d.k.d.4.g.X.T =.} r.&.R ` D @XA.P K.`.U y.0.[ &X-.1.0X0...m.M ( &Xy 9 X.w @ a N.JX0X2.yXK.G eX8X2.h.t.@.f.t.5.j.,.d.G.;XSXaXSXLXaXSX",
"] 4.yX[.| K.G.5.A.}  .d.*.| -.} r.&...m.Y r.j._ [.=.= o d + @ 4.JXzXM.M.( @.G.t.V.J.w.r.A.}.vX_.|.JXoXE.LXfX#.xXqXx.`.k.,.G.} w.h.( 1.! J C.j.' f.-.W 4.U.~ f.P.",
"[ ~ _ n.d...[.-.3.`.} z.F.R K.-.,.].Y w.m.1.xX:Xb 3 P = = r X u r.t S =Xu.) S.h.#.7X8.@._.*.H r.0.{ A.h.i.f.' { A.| { V.] z.K.@.1.d.Z + r +.cX7X3.X.d. .} ;.~ } ",
"sXoXr.' g.8.' J.k.n V 3., , !.6X-.*.J.` / -.v = 0 d m g h Y , @ 8   = M.uXm.{ n.r.#.n.*.y.`.t.p._.( #.`.@.@.L.{ Z.[.Q S.&.w.CXNXU q ( L @ & C.GXbX4XfXgXv.gXqXt.",
";XpX| C.[ d.=.l.:X} N 5 L - 4 z.J.-.r.=.-.j.8 & S #.*Xw.y.'._ h r a . r tXCXh.[ g.| w.>Xt._ 7 _ oXh.{  XK.(  XP.( l.0.V 7 c [ - z B P U k - t Q.;.y b.j.m T.P.Y ",
"p #   k ,.h.J.V.Z.G.5.n l 8 7 ,.V.;.o.q.o._.-.w.HX[ B.eX[ 0Xj.' D g = @ } uXvX3...4.1.'.oXt X v e.).*.{ '.d.{ P.4.@.#Xw.w [ ( h  Xc.1.eXD.m 8 f @ . 4 @   t @ X ",
"4 p y T g.1.dXJ.| 0XK.L + P ~.J.;.k.*.&.;.h._.X.Z.dXY s.+X1.9Xr.X./ g o ; H.CX-X,.M.-.{ 6Xk.z.vXf.#.+Xu...m.r.4._.f.s.yX5.XXVX5.#XNX4.0XNX| M.z.' ( y.' b 7 f m ",
"*.4.P.6.+X+X| qXqX%.7 9 v.JXbX3.&.,Xd.*.j.4...F.*._.g.w.:X1.@X'.*. X&.5   8 rXvXH.| j.5.t.6Xf.z.#Xt.e.r.3.p.>Xf.XXxX,.XXvX| .XCX,.XXeX{ @XeX,. XtX...XmX} ) ,._ ",
"z.C.A.c.*.oX~. X0XC.z + t C.+XP.f.d.J.4.A.n...+Xg.h.8X[ +X`...NXh.N.&X` % @ ~ 7XbX1.u.n.@.z.oXd.:XK.R z.V.2.VX8X| =XvX| 0XvX5.#XeX..y.+X1. X:X| .XeX2.$X>Xb.}.V.",
"V.2.P.+X*.XXzXx.@X:X} + O m z._.k.f.7X-.4.[.=...yX` M.9XR 6Xn.4.zXr.M.M f o < ~.zX_.| J.j.6.#X8.2.z.h.U ..A.5.tXoX{ yX@X5. XoX4.).J.1. XZ.#.0XQ.h.VX~.x.CXK.i.VX",
"xXv.z.xXK.3.VXdX2.Z.m  .MXHXG. .g.c. .F.k...6X4.) '.=.w.h.r.V...=.-.M.'.=.= %  .6X+X,.,.V.t.6.6X5.*.h.5.e.0XV.!.tXK.B.tXC.t.zXl.) 6Xt.3.7Xc.C.bX} T.FXc.!.BXc..X",
"eX@Xt.>XP.l.#XeXQ.N.V D OXoXbXG.X.d.4.*.&.h.V.m.X._.=._ _.=.h.r.-.J.[ CX>XR , 0 f.=.j.*.h.V.t.M.H.4.X.h.N.&X7X5.rXeX4.tXvX4.=X7X~ Z.9X_ Z.8X3.OXdXt.tXMXv.rXfXC.",
"*.d.,. XcX4.N.FX+XI c C Y  XMXV.-.P.J.} ;.d.^ &Xm.U yXJ.V g.[._ B.eXu.r.m.1.f / 4.4.j.4.C.8X4...zXC. .u.V.U ( 6XE * D Y #.xX4.mXaX .@XdXl.mX0XC.VXf..X+X-.x.6Xh.",
"j h.`.{ +X<X{ C.6Xz.a.1 & | r.A.h.*.J.G.} A.J...B.-.X.J.4.4.A.-.h.eXA.g t r.&.n.P.4.`.`...M.`.l.=.J.C.@.h...m A.,.- M ` g ..v.R.0XK.z.w.[ C.#XP 4.HX8.2 $ j j @ ",
"3.H.n.5.B.8Xl.R.yXJ.,.[ / I oX`.G.k.F.j.4.d.g.1.eXm.Y A.F.S }.8X} ..Z.*.` vX].4.K.J.X.J.h.h.r.4.e.'.V.1.G.oXOXCX6Xt.VXvXL 1 C.l.U X.*.> 0 M 8 } E *.' g m H.i i ",
"LXG.oX=.X.=XoXR #X6XK.5.t.T &.-.`.K.%.d.L.' w.0.&.J.*.y._.m.M.g.=.r l J.Z.vX].8.j.F.q.8X:X0 + / t.( h.p.| V.K.t.K.OXC.J.oX{ +XqX@.R.JX<X| ;XNXP./.w.=.H.SXIXc.lX",
"G.j.c.z.#.'.'.l.tX8X:XM.c.#Xg.:X].I.j.G.'.4.A.`.F.F.Y w._.n.I * h } &.9XZ.` ` ,X].t.0.j.&.L & Y G.#.`.V.1.A.P.2.y.'.| r.7XH.z.A.G.;XH.`.oXK.4.d.c.H.oXG.D.k.F.G.",
"F.dXoX6.[ &X6X+X2.o.-.X.0.H.-.d.n.P.,X` o.zXg. .'.'.h.M...A.*.S v g.L.{.F.,.d.pX:X4.Z.HXZXH.~ =.+Xx...K.M.*.V.!.1.4.N.C.8X~.z.V.`.C.} V.9Xl.} K.K.,.M.`.' f.bX .",
"~.J.j...p.Z.8Xm.@.@.M h g.V.,.=.L.{.I.h.o.;.j.P C &.'.r.T A.yX'.P.n.=.q.L.~.r.d.G.,XhX'.:XG.K.j.9X-XV.K.[ d.9X:Xc.z.T #XLXnX| r.HXhXx.` oX8Xv.=.4.H.-.k.5.V.G.4.",
"k M S.).oX) 8 : h ~.j / vX7X7X:Xj.F.U.1X_ ` v d o.7 m.'.g._.yX{.j.j._ k.jXK.' ` pXhXc.Y &.n.].D.Y -.].`.Q.C.r.h.P.;XS 2 r.t.~ # T +X,...CXCX-Xd.h.n./ h.oX,.%.oX",
"( M P _ K.( 7 # 1 oX5.=.`.zX[.l.&.j.[.G...S.D r [ S 0.9X_.-.).0.g.`.A.A.9X9X-XA.jX[.6.M.eXvXK.@.X.n.`.:XoX[ T V.A.P.,.2 H 0.;Xs a kX3.{ +Xc.g.D.c.V.1.oX~.sX-Xh.",
"-X{ n 0.'.V.h.V.'.9XC.V.`.8X8XA.;.F.[.'.m.:X8Xj.E V =.'.n.T u.6X_.L.*._ j.{.7Xr.pXzX,.OXdXvXP.d.qXK.h.P.7XOXh.` r.-Xf.w R.JXdX2.N.AX6.e A.%.X.j.c.{ [ } d.4X-X' "
};
