/* XPM */
static char *_0085_7e163b67aafae52729eea297a4a43d749bd5acf727dac6898be2d628df901b83[] = {
/* columns rows colors chars-per-pixel */
"80 80 184 2 ",
"   c #35231A",
".  c #392719",
"X  c #3B2B1D",
"o  c #3C2D23",
"O  c #352B29",
"+  c #3D2D2C",
"@  c #302521",
"#  c #3E332C",
"$  c #3D3233",
"%  c #3F3E39",
"&  c #422D26",
"*  c #422E2C",
"=  c #403227",
"-  c #45342D",
";  c #4A352B",
":  c #42382F",
">  c #4C392E",
",  c #433533",
"<  c #443B34",
"1  c #4C3B33",
"2  c #413738",
"3  c #453D3B",
"4  c #4C3E3B",
"5  c #493733",
"6  c #523D35",
"7  c #533F38",
"8  c #484035",
"9  c #4D423C",
"0  c #524137",
"q  c #52443D",
"w  c #5E4139",
"e  c #60453C",
"r  c #443F43",
"t  c #483F40",
"y  c #4B4443",
"u  c #4F4A47",
"i  c #4D4A4B",
"p  c #484445",
"a  c #534542",
"s  c #594744",
"d  c #544A44",
"f  c #5B4C45",
"g  c #514748",
"h  c #544C4B",
"j  c #5C4D4A",
"k  c #5A5047",
"l  c #55514D",
"z  c #5C524D",
"x  c #574E51",
"c  c #565252",
"v  c #5C5453",
"b  c #5D5854",
"n  c #595559",
"m  c #5D5C5C",
"M  c #624F48",
"N  c #624942",
"B  c #61534C",
"V  c #62584F",
"C  c #625553",
"Z  c #635A55",
"A  c #695D55",
"S  c #645C5B",
"D  c #695F5C",
"F  c #61565A",
"G  c #64615D",
"H  c #6B625D",
"J  c #71645C",
"K  c #5D5C60",
"L  c #645F62",
"P  c #6A5E61",
"I  c #646363",
"U  c #6C6563",
"Y  c #6D6966",
"T  c #66666A",
"R  c #6A6669",
"E  c #67686A",
"W  c #6C6B6D",
"Q  c #716665",
"!  c #726B66",
"~  c #736C6B",
"^  c #786E6D",
"/  c #6C706F",
"(  c #75726E",
")  c #7A736E",
"_  c #6E6E71",
"`  c #726E73",
"'  c #786E71",
"]  c #6F7173",
"[  c #6E7178",
"{  c #737375",
"}  c #7B7573",
"|  c #7C7976",
" . c #757679",
".. c #7A767B",
"X. c #76797C",
"o. c #7A7A7D",
"O. c #817977",
"+. c #807778",
"@. c #827E7B",
"#. c #7E807F",
"$. c #84817E",
"%. c #88817D",
"&. c #777C82",
"*. c #7B7D81",
"=. c #7C7B84",
"-. c #827E81",
";. c #7D8185",
":. c #7E858A",
">. c #7F898B",
",. c #858382",
"<. c #898684",
"1. c #878883",
"2. c #8B8986",
"3. c #83848A",
"4. c #89878A",
"5. c #82898D",
"6. c #8D8B8B",
"7. c #908D8C",
"8. c #8E908F",
"9. c #92918F",
"0. c #848C92",
"q. c #8D8D92",
"w. c #888B97",
"e. c #918E92",
"r. c #8F9195",
"t. c #8D9399",
"y. c #939294",
"u. c #999695",
"i. c #94959A",
"p. c #99959A",
"a. c #96999D",
"s. c #9A9A9D",
"d. c #969AA1",
"f. c #9B9DA3",
"g. c #9C9FA8",
"h. c #A19EA4",
"j. c #9DA1A6",
"k. c #9EA2A9",
"l. c #9EA8AA",
"z. c #A1A2A6",
"x. c #A2A5AB",
"c. c #A8A6AD",
"v. c #A5AAAE",
"b. c #A9AAAE",
"n. c #A4A7B1",
"m. c #A5ABB2",
"M. c #ABADB3",
"N. c #A7AEB8",
"B. c #ABAFBA",
"V. c #B0AFB4",
"C. c #A7B1B3",
"Z. c #AEB1B6",
"A. c #A7B0B9",
"S. c #AEB3B9",
"D. c #AFBABE",
"F. c #B1B1B6",
"G. c #B2B5BB",
"H. c #B3B9BD",
"J. c #B8B9BE",
"K. c #B3B5C0",
"L. c #B5BBC2",
"P. c #BABDC4",
"I. c #B6BEC9",
"U. c #BCBEC9",
"Y. c #B6C0C3",
"T. c #BDC1C6",
"R. c #BEC2CA",
"E. c #BFC8CD",
"W. c #BEC5D1",
"Q. c #BFC8D1",
"!. c #C2C5CC",
"~. c #C3C9CE",
"^. c #C3C5D2",
"/. c #C5CBD3",
"(. c #C9CED4",
"). c #C6CDDA",
"_. c #C9CFDF",
"`. c #CBD1D6",
"'. c #C7D0D9",
"]. c #CBD3DB",
"[. c #C7D1D3",
"{. c #D0DBDF",
"}. c #CDD5E1",
"|. c #D1DAE5",
/* pixels */
"F.G.F.G.G.H.G.G.V.G.p.Q ) z.H.V.x.y.7.f.<.<.M.i.C 1 1 f o.p.f.c.f.e.J.M.x.F.F.b.M.Z.Z.Z.F.M.M.M.z.x.u.6.m.j.q.b.Z.Z.Z.Z.z.s.M.c.z.s.z.M.M.M.M.M.S.G.Z.B.M.M.G.F.",
"!.R.T.!.U.G.!.!.!.!.^.).~.!.U.!.(.(.(.~.(.^.).K.G.e.Q ^ 6.R.~.~.!.!.~.!.!.!.L.R.R.!.R.!.!.R.!.U.L.!.L.H.R.P.G.R.z.x.T.J.G.R.R.T.!.!.!.R.!.U.R.~.^.^.R.R.R.U.!.!.",
"@.! H | ~ A O.q.7.6.<.-.<.4.<.@.,.4.<.2.6.6.6.2.<.y.7.7.6.<.6.4.<.7.6.6.<.<.%.<.,.2.6.4.<.,.<.6.6.6.6.4.$.$.$.$.} ( W Z l } <.<.<.<.,.<.4.,.$.,.,.e.7.6.6.6.,.<.",
"*.-.;.;.:.3.X.h 4 I _ I ..o...X.U ;.*.` I ` ..o.o.*.*... .X.X.L S *...=.,.;.;.,.;.o.{ ..{ o.&.h 4 c _ _ ..{ { { X... .X.o.{ { { { { { { { { ..I c S h d y h I ..",
"} ..-.} G D a 5 - & C -.x.x.x.n.j.G a , a F q.c.x.i.e.4...*.e.4.z.m.c.4...5.4.=.3.h.c.x.k.-.Q v } r.Q D q.x.z.j.f.k.f.f.j.z.v.n.x.j.j.f.l.l.g.r.~ s s A Y ' 4.f.",
"f.b.c.h.7.y.<.s.s.@.q Z x.Z.F.G.M.2.} ,.M.G.G.H.-.2 3 h v 4.6.x.L.M.3.Z 4 5 5 & U p.M.F.Z.s.@.,.u.G.M.Z.Z.M.M.M.M.V.Z.M.M.x.y.y.a.M.M.Z.S.Z.G.K.i.6.Z.L.L.P.G.M.",
"R.L.~.!.(.(.(.R.y.z.M.J.!.L.h.c.P.(.!.U.!.~.^.~.L.7.U ! Y x.L.<.+.C 5 ; ^ J ; 6 1 f 6.J.R.!.(.^.R.!.R.!.!.!.!.~.!.!.!.R.M.z.} Z H b.~.Z.b.H.P.R.M.c.b.I.P.L.R.R.",
"<.O.,.<.<.2.<.%.O.O.<.2.<.<...,.<.6.2.<.-.<.7.2.<.,.| } ' @.@.j N f f s U C 7 f Z } 3.,.4.<.@.O.,.@.@.@.$.$.$.1.<.2.2.2.$.$.6.1.$.$.6.H G 2.@.} <.,.C } 7.<.2.<.",
"_ { X.X. .W X...u # ` o.X.o.*.*.o...X.X.&.....X.X.o.*.o.o.X.o.;.;.3.*.*.*.*.;.;.;.*.o.{ n h n I W j c a 1 < b { o.{ ` R b G W { .. .T W K { *.-.*...*.*.*.o.o.o.",
"q.e.k.x.y.o.j.x.f.f.c.x.x.x.x.x.x.z.x.x.x.k.x.x.x.x.k.z.x.c.x.x.x.x.x.x.j.x.x.k.z.x.k.j.x.x.x.x.k.k.c.x.l.f.k.j.q...P Y U } j.v.f.i.5.f.x.i.f.f.f.Q S S ~ x.x.x.",
"Z.Z.M.F.J.L.M.b.M.F.G.G.G.F.F.Z.M.B.b.M.Z.Z.M.F.Z.Z.F.F.S.F.G.F.G.G.M.Z.Z.M.Z.G.F.M.M.Z.F.F.Z.M.M.M.M.B.x.Z.F.Z.s.<.<.h...7.Z.q.B ; 7 D ,.p.f.c.a.i.H.z.j.F.F.M.",
"R.R.J.H.b.Z.(.!.!.!.H.R.~.!.!.!.!.!.f.u.P.K.L.!.R.~.R.J.R.R.!.~.^.^.R.R.R.R.!.!.R.F.L.!.!.~.!.!.R.P.!.P.G.!.R.!.`.`.`.~.[.).^.K.F.4.Q ~ i.!.~.~.!.~.~.~.(.!.L.R.",
",.@.A A Y D $.$.,.,.| ,.4.6.6.<.6.,.7.6.6.<.<.6.6.4.2.6.,.4.6.2.-.q.4.2.4.2.<.<.,.1.4.<.2.6.2.6.3.| ,.2.,.4.,.,.,.<.<.6.7.6.7.2.4.e.7.6.7.<.6.4.<.7.6.<.,.2.<.<.",
"*.{ v 9 $ t @ O n X..... .3 * h L h x n p T ..{ { .. ... ...X.] K ....{ { ..{ { { { X.X.{ { { { ..{  .{ ..X.X.{ R ;.*._ I { ..o.*.=.@.....o.{ m L *.&.,.3.=.*.;.",
"6.x.f.j.k.g.v L q.k.x.x.x.a.a.` , + P v x z.c.k.k.j.j.k.k.j.x.x.x.k.z.j.k.l.f.f.x.y.C j i.j.j.j.j.j.j.f.c.x.k.c.f.v 9 5 u P i.b.x.t.t.-. .-.t.4.x.c.k.3...6.-.=.",
"' a.F.F.F.F.M.Z.Z.M.b.f.i.z.G.Z.m.i.M.q.f.F.f.b.x.m.M.M.g.c.M.M.M.Z.Z.Z.M.b.M.M.Z.a.~ ,.x.z.b.Z.M.M.Z.x.m.M.G.Z.M.,.' q.F.G.G.G.` $ 4 j n q.4.m.P.c.-.C 6 1 , - ",
"1 C i.J.U.U.!.!.!.^.U.L.U.U.R.!.~.(.!.R.R.R.k.H.!.R.!.!.R.R.R.E.!.!.R.L.J.T.G.b.H.J.F.R.R.P.R.U.R.L.J.R.R.J.f.b.!.^.L.!.!.~.).!.L.<.Q ! ( M.G.$.+.j ; > O.B ; 0 ",
"S O.3.,.@.O.<.<.<.6.6.4.2.2.2.<.O.^ } <.<.<.<.@.$.$.<.2.2.$.$.,.$.<.%.O.$.<.%.o.-.<.<.,.%.@.@.$.| G ~ <.2.$...$.6.6.6.<.%.2.7.<.<.$.} } ( $.| f f f f s ! z 0 j ",
"-.o...X.I I { {  .{ { { { K c ` ..{ ] ] { { I { ..T W { { _ W I S { ] ] ] { ] { { ] { { { I m E ]  . .{ X.o.o.o.| o.X.X.X.......o.o.*.o.o.o.*.;.;.;.=.*.*.*.;.;.",
"g.x.k.k.x.x.x.f.f.k.d.i.x.,.*.f.g.f.j.j.k.f.i.g.j.q.a.f.f.f.g.f.f.a.f.f.g.g.g.f.g.g.f.f.f.k.k.k.f.d.f.g.j.x.b.z.z.x.x.x.l.x.x.k.x.x.z.x.x.x.k.k.x.x.z.x.c.x.z.x.",
"Z.b.b.Z.Z.M.G.M.b.Z.x.x.M.Z.H.S.F.H.Z.m.b.M.b.f.v.Z.b.v.b.b.M.b.b.b.M.b.b.m.b.b.x.b.b.M.m.b.b.M.M.b.b.M.Z.G.F.F.B.Z.b.M.M.M.M.Z.M.F.G.F.F.G.G.G.F.G.L.H.u.k.S.M.",
"R.M.z.P.U.L.R.U.R.R.R.!.P.L.M.u.6.2.M.G.%.f.M.G.T.R.R.P.R.R.R.!.R.T.R.L.J.L.T.L.U.R.T.R.R.P.L.L.U.I.T.U.L.U.T.!.R.T.u.s.P.P.L.U.J.T.J.L.R.T.R.E./.).M.} V l.'.E.",
"H ! ,.$.@.o.,...$.| o.$.,.<.H 0 6 - U 2.| o.<.<.<.$.,.<.,.<.2.<.,.<.2.,.$.,.$.<.<.,.$.%.1.,.,.<.,.<.<.<.@.$.<.<.<.,.2.1.<.<.<.<.,.<.$.$.<.<.,.3.q.q.3.( ~ | 2.,.",
"_ { R c E .._ { { { { ] _ { X.o.*.o..._ { { ] { ] _ { ] ~ W W W W ] i % T _ ] ] ( / / {  . ...` _ W W W { W E W { W _ W W _ ( W W { W ] W W m E &.;.;.5.{ d u W ",
"k.k.k.f.f.a.i.r.d.g.j.f.f.g.f.f.f.a.g.g.f.j.f.a.f.f.a.g.j.l.j.j.i.a.4.,.f.g.d.f.f.f.f.,.I D R y.f.a.f.f.a.d.s.j.f.a.f.f.f.f.f.f.g.d.f.g.f.I m f.N.C.v.v.v.v.j.f.",
"M.M.M.M.x.s.b.Z.Z.M.x.b.b.m.b.M.Z.M.b.m.M.Z.M.Z.H.S.s.v.G.F.G.G.i.y.Z.Z.n.m.b.x.x.v.b.a.U U -.z.x.m.m.m.Z.Z.b.m.M.M.b.M.x.v.x.x.b.b.b.b.Z.m.Z.I.L.H.D.H.D.H.G.M.",
"P.U.R.R.R.R.!.^.).E.Y.L.R.~.R.P.L.J.L.L.M.s.E.(.~.~.~.(.!.G.L.R.Z.b.x.G.U.L.H.G.f.a.x.L.^.R.!.P.P.m.b.J.f.v.J.z.b.P.R.L.L.P.U.R.J.T.T.Y./.^.R.R.E.[.~.[.[.E.H.H.",
"$.<.<.,.$.<.,.4.<.1.$.$.,.,.<.,.$.$.<.<.| U $.6.6.7.7.8.6.6.<.} $.2.S ~ 6.<.,.,.,.,.,.,.,.,.,.,.,.} ( $.H ! #.G S ,.,.,.<.,.4.@.$.@.,.6.1.o.*.,.#.8.8.y.y.9.,.o.",
"o.o.o.o.*.*.*...*.*.;.3.3.o.*...*.3.3...-.5.=.*.I W ..{ *.*.o.;.*...o.*.*.o.X...{ _ .... ...{ { { X...{ { T  .>.>.;.#.#.o.*.{ S # h  .;.;.;.:.&.] S l h d h R *.",
"c.x.x.x.x.c.c.x.x.x.a.-.q.x.x.c.e.o.~ P U 4.x.M.a.a.4.d.N.i.f.h.j.` A S ~ x.l.c.q.q.x.x.x.x.b.z.k.k.k.k.k.A.C.l.l.C.l.C.m.l.j.d.i.l.v.l.l.m.j.e.Y s q V Q ^ ,.x.",
"G.Z.Z.G.G.H.F.F.Z.G.y.J } n.G.M.f.<.-.h.o.<.M.y.C ; 7 A -.y.h.c.a.y.G.b.s.F.F.m.Z.Z.Z.F.S.Z.M.M.x.x.r.r.m.K.D.D.D.D.L.H.H.l.1.j.Y.H.a.b.D.C.G.L.y.6.G.P.L.L.G.F.",
"R.!.~.!.L.H.!.~.^.!.^.].~.!.!.!.(.`.`.(.(.(.).K.G.7.Q ^ e.~.!.^.!.~.~.~.(.!.U.U.!.!.!.!.R.T.!.U.L.R.H.H.T.[./.[.E.E.E.~.S.v.E.[.~.~.[.(.R.D.P.!.M.b.c.U.P.L.R.~.",
"<.6.4.1.~ D @.q.6.6.,.@.<.<.,.,.<.<.<.6.7.6.7.4.2.y.6.7.6.<.6.6.<.7.6.2.,.<.<.<.,.6.6.4.<.,.,.6.6.6.6.2.1.1.4.6.2.2.<.1.| Y $.4.8.6.6.6.9.6.,.} ,.,.S } 6.6.2.4.",
"_ { X.X.=.3...g t R _ I X.o.X. .U ;.o.` I `  .o.o.*.=.X...o.{ K m *.o.=.3.;.,.*.*..... .{ *...h 3 b _ _ ..X.o.o.X.o.X.X.*.;.o.*.S W ;.o.o.o.*.*.o.X.X.o.*.*.o.o.",
"q.q.b.1.Z H q 5 - & F ,.c.x.x.x.g.m a , a S i.c.x.i.q.3...-.q.4.k.b.x.4...6.3.&.6.h.x.z.k.*.Q v ..6.Y D i.k.x.j.j.j.j.g.f.k.m.M.j.f.j.j.x.s.s.z.j.R S F ' x.x.x.",
"F.Z.S.z.7.y.<.j.p.O.0 D m.M.G.F.M.<.' 4.B.G.G.H...2 4 h n 4.6.x.L.M.<.C 7 5 , & Y a.Z.F.Z.i.$.,.s.H.B.M.M.M.M.M.M.Z.Z.m.Z.j.y.y.s.M.M.Z.v.y.h.x.a.y.H.c.f.F.Z.M.",
"!.!.!.!.`.(.(.P.i.z.Z.J.!.J.f.c.T.(.R.L.!.!.^.!.P.6.U ~ ~ v.H.<.+.M > ; ' A ; 6 6 B e.L.R.~./.~.!.!.R.!.!.R.!.~.!.!.R.R.M.f.) V U Z.^.b.V.~.~.~.!.!.~.~.(.R.P.R.",
"4.6.<.<.,.,.,.,...@.,.2.2.<.| ,.2.2.6.2.,.<.7.2.<.@.} } ) #.| f f f d s ! B 6 f Z ..,.,.<.<.@...%.$.$.$.$.%.%.1.2.<.<.2.@.$.6.1.@.,.6.G H <.<.<.6.7.6.,.<.2.<.<.",
"_ _ ..X. . .X.{ y # { o.X.X.*.o.o.o...X.X...X.X.o.o.*.o.X.o.o.;.:.=.*.*.*.*.-.:.*.*.o.] n l n U E j c 9 8 < m { ..{ _ R b G ] { { { W E K { o.*.*...{ ..o.X.X.X.",
"q.i.x.x.x.x.x.x.f.g.b.x.v.x.x.x.x.z.x.x.x.x.x.x.x.x.j.x.x.x.x.x.x.x.x.k.k.x.x.x.k.x.x.x.k.k.c.x.z.x.x.b.z.j.z.j.q.| U R G | j.b.f.d.4.f.x.i.a.h.f.~ S S ( c.x.x.",
"Z.M.Z.Z.S.Z.Z.M.M.G.G.H.F.F.Z.F.M.Z.b.b.F.M.M.F.M.M.F.Z.F.G.G.S.G.K.B.M.Z.M.Z.G.F.M.M.F.F.F.V.M.Z.M.B.M.b.M.S.M.a.<.<.h...6.B.e.z ; 7 D <.e.h.x.a.p.J.x.f.Z.V.M.",
"!.!.!.!.!.L.R.U.R.R.H.T.~.!.!.!.!.R.s.s.U.G.P.~.^.!.R.P.R.R.~.^./.^.!.R.R.R.!.!.R.Z.J.!.!.~.~.!.R.L.!.P.G.!.R.R.(.`.(.~.(.(.^.G.F.<.Q ^ y.^.~.^.!.^.~.^.(.!.U.U.",
"<.4.6.2.<.<.<.2.6.,.| ,.2.6.6.2.6.,.e.7.<.4.<.7.6.6.2.<.4.1.6.2.,.6.6.<.6.3.,.,.<.,.1.2.6.2.2.6.<.| ,.2.<.<.,.,.<.<.<.q.e.6.7.4.6.y.4.q.7.<.6.2.2.7.6.<.<.<.,.<.",
"*.X. ...{ *.{ g 9 S X.X.{ 2 , h L i c c p W } { { { .. . .....W I ..{ { { X.{ { {  ...o.{ ` { { { { { ] ] .. .{ R 3.o.W I ` } *.o.*.;.....X.{ m I o.&.,.;.-.-.=.",
"6.x.x.j.k...Y v @.i.j.x.x.i.s.R - * R z F x.x.f.j.j.j.x.k.j.x.k.x.g.z.j.z.k.j.j.z.r.z v a.f.j.z.j.j.g.a.s.x.j.c.f.v a 5 a L d.c.x.q.i.,...-.y.4.x.b.x.3.} 6.3.-.",
"( s.G.F.Z.y.-.,.s.M.b.s.i.c.H.M.c.d.M.4.f.M.f.b.x.b.Z.M.j.c.M.M.M.M.F.F.M.b.b.M.Z.y.~ <.c.x.b.M.Z.M.M.b.b.M.G.G.M.-.^ 7.G.G.G.G.` , 3 h n q.6.M.P.x.-.v 7 1 , - ",
"6 C u.L.!.~.^.~.R.R.U.L.P.P.R.~.~.^.!.U.!.U.j.L.R.R.!.^.R.!.R.!.!.!.U.L.L.P.F.M.L.L.F.R.U.R.R.R.R.J.H.R.!.H.s.b.U.(.P.T.~.^.).!.L.<.H ! ~ M.G.-.+.M > > } C ; 6 ",
"A ..3.,.<.,.@.@.<.4.4.6.<.6.6.<.@.^ O.<.<.<.<.@.$.$.2.1.<.$.,.,.<.<.@.O.$.$.,.$.$.,.<.<.%.$.@.@.| S ~ 2.<.<.O.<.2.<.6.2.-.<.6.<.<.,.} } } -.} f s d f s ~ B 0 f ",
"=.o.o._ n x n I { { .. .{ m n { { { { { { W I { { E _ { { W W G K { ` ` { { ` { { ] ` _ ] I m E [ { [ { ..o.*.o.X...X...X.X.X.o.o.*.*.o.X.o.*.*.;.;.=.;.*.;.;.;.",
"x.x.k.x.x.x.v.x.k.g.a.i.k.=.-.f.f.j.j.j.j.j.u.j.j.6.a.j.s.j.j.k.g.i.g.f.g.d.f.f.f.f.g.g.d.j.x.j.j.g.f.j.g.c.x.x.k.x.c.z.k.x.x.k.x.c.j.x.x.x.x.x.x.x.x.x.z.x.x.k.",
"F.Z.B.F.M.F.F.M.M.M.x.z.M.Z.G.G.G.H.Z.b.v.M.b.f.M.Z.n.v.b.Z.Z.b.b.b.V.M.n.m.M.c.b.x.m.M.M.b.b.M.M.m.b.M.M.G.F.V.Z.S.n.M.F.F.M.M.M.Z.Z.S.S.G.G.F.G.G.F.M.M.M.F.G.",
"L.Z.U.R.!.~.^.!.U.L.!.!.L.L.m.u.6.2.Z.C.%.j.b.b.Z.R.E.T.L.L.T.Y.T.T.P.L.H.L.L.H.G.G.G.F.I.P.J.J.P.U.L.R.!.!.!.~.!.R.p.f.R.G.U.!.!.!.R.P.R.R.~.~.^.!.!.R.R.R.!.!.",
"<.<.<.2.2.2.<.6.,.| @.@.<.1.H 0 1 : ~ r.$.#.#. .o.$.#.| #.%.$.$.$.,.,.| O.,.@.,.,.<.$.$.$.o.<.<.,.<.<.,.1.6.6.<.6.,.y.q.6.<.<.6.q.2.<.,.1.1.6.2.-.q.6.2.6.<.,.<.",
"{ ..X.X.{ { { { { { { ] W { X.o.| X.#.G m ] / ;.;.l O O u ;.#.#.o.o.o.*.*.*.o.*.*.o.X.o.*.,.o.{ _ _ W _ E 2 , l P g c c p _  ...]  .*... ...X.E I  .{ { { ..{ { ",
"k.5.j Z f.f.j.j.j.j.g.f.f.g.f.f.f.l.l.t.y.r.| j.C.j.a.l.v.v.v.v.v.x.v.k.c.x.x.x.y.t.} 5.4.( <.z.d.d.f.g.a.y.d.I , + W j D x.j.k.x.q.o.d.k.k.z.x.x.f.k.k.k.j.j.j.",
"Z.y.} e.b.k.M.Z.b.v.x.v.b.M.b.M.D.Y.E.[.E.[.E.Z.D.J.Y.Y.H.D.D.D.S.D.K.G.K.K.F.F.c.s.M.@.^ ,.s.M.x.m.M.M.M.M.G.M.x.a.M.,.f.Z.M.m.} h } k.j.c.Z.Z.M.M.S.G.S.D.Z.M.",
"J.u.$.z.V.b.b.H.T.T.I.~./.Q.~.G.e.' ~ +.^ } j.`.T.Y.[.~.~./././././.[.~.~.^.~.(.K.M.M.e w N ! J.Z.f.z.u.v.s.M.R.~.!.J.G.P.!.L.J.x.M.!.P.L.R.J.Z.T.R.E.E.[.[.E.~.",
"$.( H b J H A H Y #.,.,.,.$.,.,.o.( S S f f ~ e.$.#.1.#.8.6.$.$.$.#.2.$.,.2.<.<.<.,...H M f z o.$.! ! H ( Y } @.@.} } ( ( ..$.$.,.,.@.$.$.$.o.( $.$.#.1.1.1.%.1.",
"5.5.>.5.| :.0.:.T r p r $ 3 c _ =.m j h 1 m t.:.:.;.;.;.c 8 - o < { :.:.;.;.o.*.*.*.*.-.;.,.:. .X.o.*.=.#.o.o.o...` _ I b I W W o...X...} { ..X. .X.;.#.;.;.5.;.",
"5.b k ~ { d } C.v.;.G o.b d y q i.q.3.o.o.q.t.=.l.C.m.m.y.1.4.W I 5.t.8.j.m.b.j.x.g.M.N.b.x.j.v.m.b.z.j.j.l.j.z.k.x.x.x.k.x.j.o.X.d.i.f.j.j.d.j.x.l.x.l./ m G #.",
"1.y.1.U o.2.9.L.k.=.D.H.4.~ o.6.l.~ j D d.n.m.n.Y.W.W.Q.R.D.,.( Z 1.a.k 9 d ) J.@.P Q e.<.+.j 9 ) @.b.G.Z.Z.Z.G.Z.Z.Z.M.c.j.O.S ,.6.,.5.j.b.Z.M.l.Z.G.I.Y.a.#.6.",
"T.E.k.,.s.{.|.].).W.L.g.Z.).}.}.].S.z.h.B.L.L.E.W.L.a.y.z.6.u.,.} ) f 0 k 9 G D.~ f j C ) z.z.@.) a.P.!.R.R.!.~.!.!.!.!.R.Z.~ U y.~.!.T.T.R.!.!.G.G.Z.j.s.J.l.x.",
"z k q d G @.$.@.) $.,.1.,.6.,.,.6.y.7.e.6.7.@.} A S z z h 9 Z } ,.H q b $.G q z } @...@.} Q } ,.2.4.@.| $.$.$.$.<.<.,.1.<.@.<.4.1.,.,.$.@.$.1.<.,.1.G 1 1 l 9 q ",
"] i U z # 9 G l g S 9 o X o o o . . = o X o - , = c =.0.>. .&.l a ] 5.5.K { ;.o.;.o.*.*.*.*.I z { o.W W  .o.] E  .....{ ..E R  .{ {  .{ { ..{  .{ o.:.5.5.:.;.;.",
"C.6.Z z z V 3.#.W H f 1 q q a z ( ( d S c Z w.n.:.v P 4 a 0 z j l ~ j.v.m.v.v.v.C.v.l.v.x.x.b.M.x.x.x.b.x.j.k.x.x.x.x.k.k.m.x.s.x.x.j.k.k.x.k.f.j.6.;.l.Y k | l.",
"D.Y.Y.L.H.Y.J.Y.D.e.e.z.x.s.m.I.^.E.Z.Z.Y.Q./.R.E.a.q.,.C ~ d.N.A.L.Y.L.l.l.H.C.S.D.G.G.G.G.G.Z.F.F.G.G.Z.Z.S.F.Z.Z.Z.G.c.4.x.Z.f.m.M.M.M.M.M.M.Z.C.f.x.u.z.C.Z.",
"E.Q.E.[.[.].].`.].|.|.].{.}.{.I.J.].].T.b.u.k.L.W.i.M.|.).).R.W.[.).Z.$.z 6.].E.!.~.~.[.!.~.!.U.!.!.!.!.!.T.L.R.P.L.J.,.i.F.L.b.6.G.U.R.U.!.U.U.H.D.E.s.8.1.,.y.",
"1.6.r.6.6.1.1.1.$.,.4.r.6.6.6.,.,.y.5.U z a a S ~ P @.e.q.4.@.3.6.q.3.{ ( } 2.1.1.2.2.2.<.<.<.,.o.@.$.$.,.| ~ @.$.@.| } | <.@.z H ,.%.@.@.%.@.<.H b ( 5.#.Z S 1.",
"*./ l 9 : X     : I *.I _ :.:.:.:.;.:.:.0.w.0.0.>.>.>.:.;.:.K I &.:.:.>.X.l y / ;.o.o.o.*.o.*...X.X...o. . .o. .o.X...X.X.X.{ ..*.*.R W { { { ..#.:.#.o.&.>.:.&.",
"v.a.,.o.| ~ o.$.Y S 6.n.n.N.N.N.m.B.A.m.N.m.m.m.N.N.m.m.N.{ v t.m.m.n.m.v.v.l.m.b.b.x.x.k.c.z.x.x.j.j.k.z.z.j.j.f.j.j.k.d.;.a.y.W ~ ~ p.x.z.j.j.x.x.l.v.v.l.v.l.",
"H.H.Y.D.a.V A s.T.Y.R.E.E.Y.L.I.Y.I.L.I.I.I.I.I.K.K.L.A.S.N.Z.L.L.H.Y.H.Y.D.H.H.D.F.M.M.M.F.H.F.Z.Z.Z.F.Z.Z.Z.Z.F.F.M.Z.b.8.v.v.i.7.p.N.N.M.M.M.Z.F.H.S.D.S.H.H.",
"Y.Q.~.[.L.c.z.Z.$.$.f.L.b.v./.Z.F.^.I.Q.'.]./.'.Q._./.).)./.R.W.E.[.~.~.[.~.~.^.^.R.R.~.(.!.R.R.!.^.R.R.!.T.L.Y.b.s.U.J.G.R.R.R.~.^.~.R.!.R.U.R.!.R.!.~.~.~.R.G.",
"Y $.2.8.r.8.#./ 9 1 9 Y G H $.G c 1.3.1.1.6.6.1.5.3.,.6.1.;.o.$.,.6.t.y.y.u.7.6.7.6.2.2.4.4.6.<.,.@.,.<.<.$.} o.| ) ( Z z W 1.<.<.<.,.%.,.,.<.,.<.<.<.<.,.} ~ v ",
"5.X.X.#.#.X.X.E o.>.5.5.;.T ] >.>.;.;.#.o.;.o.m < 9 } ;.;.;.;.;.{ S l k d d I o.o.o.o.X...o.X.X. .[  . . .{  .| o.X...X.o.[ { ..{ { { { { ..X.*...*.o.=.=.*.,.0.",
"q.z.l.l.v.x.v.m.l.v.v.v.m.A.C.l.l.m.C.C.m.l.j.j.i.l.l.l.v.v.l.t.' s q z U ~ ,.x.n.x.x.x.x.b.c.x.x.x.x.g.z.j.f.j.f.j.j.j.j.c.h.f.x.x.k.g.k.k.j.k.x.m.k.3.} q.-.=.",
"( s.S.S.S.Z.D.H.H.D.C.S.H.D.H.D.D.L.H.D.Y.l.1.u.Y.D.f.x.D.S.S.H.f.<.B.P.L.L.G.G.G.F.Z.G.G.Z.Z.Z.M.B.F.F.F.H.S.H.Z.m.Z.Z.x.4.M.M.a.N.M.M.M.M.M.G.L.c.-.C 4 1 - - ",
"1 C i.L.!.!.!.^.'.E.T.T.E.[.[./.~.~.~.~.L.v.~.].[.~././.!.H.Y.!.V.c.c.J.U.L.T.!.!.R.~.!.!.R.!.!.U.M.b.L.c.i.u.y.G.R.G.$.f.G.P.x.e.L.R.U.P.!.F.<.+.M > ; O.C - 6 ",
"S O.,.@.@.<.<.2.2.2.$.#.1.1.2.2.1.1.1.1.o.H o.1.6.6.7.6.7.6.$.) ,.4.S W 6.2.4.2.4.6.<.1.<.<.<.<.<.} ( ,.U d z b ) $.| ) } 1.} f Q <.,.@.@.<.| f d s f d ! B 7 j ",
";.o.o.*.o.o.*.*.o.*.*.3.;.*.*.o.;.=.;.o.*.3.*.;.I W X.{ o.o.o.;.*.X.*.*.o.o.o.o.{ ` o.o.X.X...X.{ o.X.{ o.=.*.*.X. .X.X.o.X. .*.*.X.I ] { { ..*.-.3.*.=.o.*.;.,.",
"x.z.x.x.x.x.c.x.v.v.k.r.i.x.x.x.i.4.o.W ~ y.x.b.a.a.6.q.m.j.l.z.x.~ x S ! z.x.c.q.w.x.x.x.x.x.z.x.j.k.f.f.z.j.j.j.j.j.j.f.6.d.5.' } ..d.x.x.j.j.x.x.x.j.x.x.x.x."
};
